<?xml version="1.0" encoding="UTF-8"?>
<!-- Generator: visioncortex VTracer 0.6.12 -->
<svg version="1.1" xmlns="http://www.w3.org/2000/svg" width="832" height="964">
<path d="M0 0 C18.943330509332043 8.553868233865046 27.487462360839345 34.50775190677332 34.453125 52.47265625 C34.79545166015623 53.349299316406245 35.137778320312464 54.22594238281249 35.490478515625 55.129150390625 C37.292555150583894 59.901188823764215 38.526715565356426 64.26575254905617 39.015625 69.34765625 C39.67562500000008 69.34765625 40.335624999999936 69.34765625 41.015625 69.34765625 C41.10457031250007 68.1062890625 41.19351562499992 66.864921875 41.28515625 65.5859375 C41.95198021426859 59.63339897079575 43.770649187206914 54.18283464015549 45.703125 48.53515625 C45.88101562500003 48.00728515624999 45.88101562500003 48.00728515624999 46.78125 45.3359375 C49.30696006856056 38.00323084934024 52.12097317157418 31.07478213546281 56.015625 24.34765625 C57.41103223079267 28.5338779423778 55.78491854613162 31.379483716998664 54.328125 35.34765625 C51.999130633190816 41.985459700090615 50.121689668181034 48.58150836794502 48.703125 55.47265625 C48.54432861328132 56.2409375 48.38553222656242 57.00921875 48.221923828125 57.80078125 C46.53525756656927 66.3072847898838 45.81711834106136 74.69535551985484 45.453125 83.34765625 C45.40994140625003 84.3131640625 45.366757812500055 85.27867187499999 45.322265625 86.2734375 C45.21720786736262 88.6314005047505 45.115055858866526 90.98945041398986 45.015625 93.34765625 C46.335624999999936 93.51265624999999 46.335624999999936 93.51265624999999 53.015625 94.34765625 C53.488710937499945 93.16171875 53.961796875000005 91.97578125000001 54.44921875 90.75390625 C57.81954325149786 82.44670764507941 61.329891128382656 74.30753077270222 65.703125 66.47265625 C65.8809753417969 66.14942382812501 65.8809753417969 66.14942382812501 66.781005859375 64.513671875 C69.10258045799776 60.46684135491975 71.61984281791206 57.475819871328014 75.015625 54.34765625 C73.67155139903991 57.80666919364735 72.18974762591404 61.18516221495119 70.65478515625 64.563232421875 C67.62643869648264 71.27930994948088 64.96236883729057 78.04194327655406 62.640625 85.03515625 C62.39022460937508 85.78885498046876 62.139824218749936 86.54255371093751 61.8818359375 87.319091796875 C60.69740238458007 90.97164436323334 59.65932431455599 94.55282424441947 59.015625 98.34765625 C60.971478248016865 99.3524982856784 62.930387368277025 100.3513943007008 64.890625 101.34765625 C65.98117187499997 101.90453124999999 67.07171874999995 102.46140624999998 68.1953125 103.03515625 C71.015625 104.34765625 71.015625 104.34765625 73.015625 104.34765625 C74.37322433286295 102.66975750743563 75.65274305177479 100.92822537227636 76.890625 99.16015625 C81.34681514914826 92.83168849065825 85.52067324096095 87.63088295563824 91.640625 82.91015625 C92.25800537109376 82.43006103515626 92.87538574218752 81.94996582031251 93.511474609375 81.455322265625 C99.80047190586299 76.63400228453673 106.4120946359991 71.82465722757564 114.015625 69.34765625 C115.00562500000001 69.67765624999998 115.99562500000002 70.00765625 117.015625 70.34765625 C116.15582031250005 70.78593749999999 115.296015625 71.22421875 114.41015625 71.67578125 C102.4149729032863 78.02305431956538 92.78646844839488 86.43055504339162 84.28515625 97.01953125 C83.8662109375 97.45781249999999 83.447265625 97.89609375 83.015625 98.34765625 C82.35562500000003 98.34765625 81.69562499999995 98.34765625 81.015625 98.34765625 C79.36123328698454 101.32556133342774 78.63012497086868 104.00942667852422 78.015625 107.34765625 C78.70527343749995 107.7717578125 79.39492187500002 108.195859375 80.10546875 108.6328125 C97.49431488008952 119.48593319847839 110.5719493558131 131.28259193657962 115.375 151.97265625 C116.0236067159816 154.37724700193175 116.66234140881159 156.25457762896184 118.015625 158.34765625 C119.71875000000011 159.30859375000006 119.71875000000011 159.30859375000006 122.015625 160.34765625 C135.87227934425414 169.52854299533098 147.1729194695381 178.43769363906074 151.578125 195.22265625 C152.82075061907585 198.94522274133396 153.537618956727 200.0682938790634 156.9765625 202.078125 C160.29446093286515 203.34936473663709 163.5981857669375 204.3814035415087 167.015625 205.34765625 C168.69068370238813 205.99294732058445 170.36094792320932 206.65176402144317 172.015625 207.34765625 C177.97427308022645 202.28375724252322 183.67485982105893 196.95524495756206 189.378662109375 191.609375 C193.7036978037022 187.55999383557588 198.0743547436682 183.5692565787484 202.4921875 179.62109375 C205.52440603228922 176.88928076889732 208.52099956484392 174.12053793825493 211.515625 171.34765625 C216.97100142956788 166.29694791423427 222.47277201354018 161.30244131238842 228.015625 156.34765625 C228.015625 159.34765625 228.015625 159.34765625 226.07421875 161.546875 C225.20925781250003 162.3680078125 224.34429687500005 163.189140625 223.453125 164.03515625 C220.411216290614 166.93816501831813 217.5469474545812 169.85021465937245 214.81201171875 173.044677734375 C211.1726108987906 177.22407742073557 207.33518417015853 181.15662287604948 203.40234375 185.05859375 C202.70671829223636 185.7528042602539 202.0110928344726 186.44701477050785 201.2943878173828 187.16226196289063 C199.09966494387288 189.3514479426923 196.9014711861024 191.5371093990468 194.703125 193.72265625 C193.21005352773022 195.21070381956264 191.71721293085852 196.69898308184776 190.224609375 198.1875 C186.95981982099875 201.4425161808444 183.69284807837755 204.69532309681279 180.4238739013672 207.94613647460938 C179.28619703879951 209.07837710291375 178.150587000246 210.212694249754 177.015625 211.34765625 C177.65371093750002 211.97414062500002 178.29179687500005 212.60062500000004 178.94921875 213.24609375 C179.36236328125005 213.6547265625 179.36236328125005 213.6547265625 181.453125 215.72265625 C181.86498046875 216.1287109375 181.86498046875 216.1287109375 183.94921875 218.18359375 C186.015625 220.34765625 186.015625 220.34765625 187.015625 222.34765625 C193.00719158750837 220.45198424876548 198.7504402286354 218.2405641175506 204.531005859375 215.7802734375 C217.1500591463 210.43510572324055 229.93163666236376 205.85475460017216 242.953125 201.59765625 C243.36355041503907 201.46162490844728 243.36355041503907 201.46162490844728 245.4405517578125 200.77322387695313 C247.78348832130519 199.99953575032134 250.1307899254149 199.2412109357648 252.48046875 198.48828125 C253.18350631713872 198.25554000854493 253.88654388427733 198.02279876708985 254.6108856201172 197.7830047607422 C258.19745325883423 196.65803601441974 260.437776739818 196.24424057196347 264.015625 197.34765625 C262.93071777343755 197.79455810546875 261.845810546875 198.2414599609375 260.72802734375 198.701904296875 C255.61417547016538 200.80964078204204 250.50209796949798 202.92165792740417 245.390625 205.03515625 C244.467565612793 205.41670867919925 243.5445062255859 205.79826110839844 242.59347534179688 206.19137573242188 C228.92511051048155 211.84594489088659 215.31151948126342 217.6099924286628 201.78076171875 223.586669921875 C201.21172119140624 223.8366271972656 201.21172119140624 223.8366271972656 198.33203125 225.1015625 C197.83932739257807 225.3197766113281 197.83932739257807 225.3197766113281 195.345947265625 226.424072265625 C193.015625 227.34765625 193.015625 227.34765625 191.015625 227.34765625 C191.4139453125 228.1094921875 191.812265625 228.871328125 192.22265625 229.65625 C192.75246093750002 230.6887890625 193.28226562500004 231.721328125 193.828125 232.78515625 C194.08916015625005 233.28982421875003 194.08916015625005 233.28982421875003 195.41015625 235.84375 C197.2803348927672 239.92538076049192 198.67572201830149 244.06826220481753 200.015625 248.34765625 C200.87502685546872 248.42282470703128 201.73442871093755 248.4979931640625 202.619873046875 248.575439453125 C234.7020266520302 251.40867416506813 265.5068618486205 255.35982584298978 296.015625 266.34765625 C292.51287958186776 267.5437282191785 290.1542388634741 267.1363393294285 286.58984375 266.2734375 C285.49945800781245 266.019814453125 284.409072265625 265.76619140625 283.28564453125 265.5048828125 C282.69452880859376 265.3655029296875 282.69452880859376 265.3655029296875 279.703125 264.66015625 C257.46558200865377 259.67991837367043 235.00886388505523 257.2045292474766 212.28173828125 255.9423828125 C211.0943505859375 255.87631835937498 209.90696289062498 255.81025390625 208.68359375 255.7421875 C207.6345385742187 255.68909423828126 206.58548339843753 255.6360009765625 205.504638671875 255.581298828125 C203.015625 255.34765625 203.015625 255.34765625 201.015625 254.34765625 C201.67562499999997 261.93765625 202.33562500000005 269.52765625 203.015625 277.34765625 C204.64886718749995 278.0141015625 206.282109375 278.680546875 207.96484375 279.3671875 C260.1265557146352 300.88591538074456 260.1265557146352 300.88591538074456 273.015625 315.34765625 C267.7579750421812 313.8407392542157 263.40108586372673 311.43652437388073 258.703125 308.72265625 C241.46760011387926 298.99893159830907 223.3745057512125 291.6866882492096 205.015625 284.34765625 C204.07106445312502 283.9697998046875 203.12650390625004 283.591943359375 202.1533203125 283.20263671875 C201.447880859375 282.9204931640625 200.74244140625 282.638349609375 200.015625 282.34765625 C199.95246093749995 282.907109375 199.889296875 283.4665625 199.82421875 284.04296875 C197.97425822348214 296.1553418815171 191.9169423259857 306.00158602538966 183.93359375 315.04296875 C180.03100924293994 319.7324287483003 179.63182943480194 323.80738481178975 179.140625 329.78515625 C177.39466011265893 347.2762954720798 170.77882032377158 364.10481371569114 159.015625 377.34765625 C158.24605468749996 378.2358203125 157.47648437500004 379.123984375 156.68359375 380.0390625 C150.57898607921902 386.9720821971873 150.57898607921902 386.9720821971873 147.015625 389.34765625 C148.00410994751496 395.41778916713423 152.54221085458744 399.4660556491167 157.015625 403.34765625 C165.12185542332793 408.5426836145287 173.57709853322262 412.5401699362237 183.328125 412.41015625 C183.76962890624998 412.40564453125 183.76962890624998 412.40564453125 186.00390625 412.3828125 C186.66777343750005 412.3712109375 187.33164062499998 412.359609375 188.015625 412.34765625 C184.88518727171288 422.74192521188553 177.9239654562915 431.15132011541687 171.015625 439.34765625 C170.3620703125 440.159765625 169.70851562500002 440.971875 169.03515625 441.80859375 C158.91596366083718 453.8453068860774 145.438301819652 462.3267062379682 131.015625 468.34765625 C130.025625 468.34765625 129.03562499999998 468.34765625 128.015625 468.34765625 C133.10224856105197 484.44414265043406 141.21611837023283 499.3080509461863 154.546875 509.97265625 C155.03156249999995 510.42640625 155.51625 510.88015625 156.015625 511.34765625 C156.015625 512.00765625 156.015625 512.66765625 156.015625 513.34765625 C142.86398119697287 520.7707829343417 129.81498604868364 526.0137342555163 115.015625 529.34765625 C115.31218994140625 529.809140625 115.60875488281249 530.270625 115.914306640625 530.74609375 C131.16860135328295 554.6475394619564 141.28176229946985 578.6264229754454 136.390625 607.6328125 C133.99728444411517 618.1357311001553 129.8349641017934 628.1433024106684 125.800048828125 638.106201171875 C122.54113981187083 647.4183840782645 122.96314713167749 657.7002996792825 126.671875 666.7734375 C128.92099307793592 671.0820677713947 131.8740347075567 674.6666745848402 135.015625 678.34765625 C136.0247964032643 679.674061488459 137.02767710323235 681.0053683780999 138.015625 682.34765625 C127.6353717585863 682.9934323733138 117.78669943222042 680.7527276430466 108.015625 677.34765625 C107.81968749999999 678.221640625 107.62374999999997 679.095625 107.421875 679.99609375 C101.5441056151767 704.1658868237993 88.73893409733546 725.0889422749373 72.015625 743.34765625 C71.48984863281248 743.9269287109375 70.96407226562496 744.506201171875 70.42236328125 745.10302734375 C66.98705710713762 748.883386427522 63.52328336339906 752.6343018714632 60.015625 756.34765625 C59.448437499999955 756.963828125 58.88125000000002 757.58 58.296875 758.21484375 C57.015625 759.34765625 57.015625 759.34765625 55.015625 759.34765625 C55.015625 760.00765625 55.015625 760.66765625 55.015625 761.34765625 C52.595599834906125 763.9300473207392 49.74013817754894 766.0962857371484 47.015625 768.34765625 C46.51111816406251 768.7683740234374 46.00661132812502 769.189091796875 45.48681640625 769.62255859375 C23.835886165391912 787.6101798156009 0.38082737813800804 802.2038803902594 -24.984375 814.34765625 C-25.29938964843751 814.5012963867188 -25.29938964843751 814.5012963867188 -26.8935546875 815.27880859375 C-34.917177931004346 819.1914100362934 -34.917177931004346 819.1914100362934 -37.984375 820.34765625 C-38.644375000000025 820.01765625 -39.30437499999999 819.68765625 -39.984375 819.34765625 C-39.03230290249246 818.3416932790486 -38.072501542072814 817.3430406188409 -37.109375 816.34765625 C-36.57570312500002 815.79078125 -36.04203124999998 815.23390625 -35.4921875 814.66015625 C-33.984375 813.34765625 -33.984375 813.34765625 -31.984375 813.34765625 C-31.984375 812.68765625 -31.984375 812.02765625 -31.984375 811.34765625 C-31.324374999999975 811.34765625 -30.664375000000007 811.34765625 -29.984375 811.34765625 C-29.760078125000007 810.80625 -29.535781250000014 810.26484375 -29.3046875 809.70703125 C-27.924677047996283 807.2409770694964 -26.256117698803507 805.3171258898027 -24.354736328125 803.23876953125 C0.14667597761115303 776.3492195689385 16.878802757296512 741.2950619935618 29.015625 707.34765625 C32.30507095066855 710.6371022006686 32.34274829272465 715.0618632674938 33.140625 719.53515625 C33.31875732421872 720.5266064453125 33.496889648437445 721.518056640625 33.680419921875 722.53955078125 C35.491690585274455 733.2271727081408 35.7682093976066 743.61307681466 34.015625 754.34765625 C57.76398557389962 729.7829457813726 60.294508332997566 696.7710615955723 60.015625 664.34765625 C64.42727512770387 667.398919491635 66.75717153018161 670.8333485562171 69.140625 675.53515625 C69.48609375000001 676.1984594726563 69.83156250000002 676.8617626953124 70.1875 677.545166015625 C72.64414692457251 682.3594204253012 74.55228631680518 687.1345121911182 76.015625 692.34765625 C76.66684329745749 689.6822046138948 77.31169660642593 687.0154656931699 77.953125 684.34765625 C78.04432617187501 683.9757617187499 78.04432617187501 683.9757617187499 78.505859375 682.09375 C82.66043084924047 664.7200874713578 82.27612762652723 646.6324933306779 78.015625 629.34765625 C77.66482969034723 627.3506450427614 77.32597183330108 625.3513518242255 77.015625 623.34765625 C86.70951708768405 625.9914450011865 94.7582746130787 638.1157173541927 99.78125 646.18359375 C99.98492187500005 646.5406640625 99.98492187500005 646.5406640625 101.015625 648.34765625 C108.59844518904913 628.1268024125358 109.87920134758576 605.8952181459169 103.015625 585.34765625 C102.62632812499999 584.12046875 102.23703124999997 582.89328125 101.8359375 581.62890625 C96.43620221831316 566.4201843915209 86.01117612056782 552.6947264253855 74.26953125 541.71484375 C73.015625 540.34765625 73.015625 540.34765625 73.015625 538.34765625 C72.35562500000003 538.34765625 71.69562500000006 538.34765625 71.015625 538.34765625 C71.015625 537.68765625 71.015625 537.02765625 71.015625 536.34765625 C70.35562499999992 536.34765625 69.69562500000006 536.34765625 69.015625 536.34765625 C67.28603784751272 534.7228925612999 65.65205739942508 533.0641097936511 64.015625 531.34765625 C56.91494916203669 523.9612389296236 49.36336125853279 517.3880039480904 41.1875 511.2109375 C40.47078125000007 510.5960546875 39.75406249999992 509.981171875 39.015625 509.34765625 C39.015625 508.6876562499999 39.015625 508.02765625000006 39.015625 507.34765625 C38.35562499999992 507.0176562500001 37.695625000000064 506.6876562499999 37.015625 506.34765625 C43.021185211622424 507.04317769989837 48.91553857782537 508.04307963949975 54.83984375 509.2421875 C74.21480874107817 513.0254646876069 96.94776909423535 513.9235595678979 116.015625 508.34765625 C116.34562500000004 508.0176562500001 116.67562499999997 507.6876562499999 117.015625 507.34765625 C116.048828125 506.984140625 115.08203125 506.620625 114.0859375 506.24609375 C92.73988375507008 498.07118485090473 74.4596187485788 484.0931342839682 60.015625 466.34765625 C60.34562499999993 465.6876562499999 60.67562500000008 465.02765625000006 61.015625 464.34765625 C62.96074768393248 464.00991790616604 64.92529166634904 463.7848308532049 66.890625 463.59765625 C96.81792446960515 460.0958020001133 127.77273415042339 451.1762501497178 153.015625 434.34765625 C152.40718749999996 434.36828125 152.40718749999996 434.36828125 149.328125 434.47265625 C135.07321614332034 434.40552167139714 122.11639776137758 430.49062076422103 111.015625 421.34765625 C107.86276308939841 418.1370319837843 104.9011703700005 414.7993961015845 102.015625 411.34765625 C101.36489013671871 411.59523681640627 100.71415527343754 411.8428173828125 100.043701171875 412.097900390625 C97.10037549501772 413.2115982879916 94.15191464556062 414.31101188304865 91.203125 415.41015625 C90.691044921875 415.605126953125 90.691044921875 415.605126953125 88.099609375 416.591796875 C87.11669921875 416.95595703125 86.1337890625 417.3201171875 85.12109375 417.6953125 C84.66810913085942 417.8655090332031 84.66810913085942 417.8655090332031 82.375732421875 418.726806640625 C80.01562500000011 419.34765625 80.01562500000011 419.34765625 77.015625 418.34765625 C90.93120031780313 401.4690686972274 105.17917715657256 389.0559192401895 124.232177734375 378.334716796875 C129.67641587677463 375.2357060228267 134.4796860085396 371.9416028675278 139.203125 367.80859375 C141.0156249999999 366.34765625000006 141.0156249999999 366.34765625000006 144.015625 365.34765625 C144.71654006213703 364.0320042071362 145.37767621292846 362.6949660018003 146.015625 361.34765625 C147.24361877856506 359.87074481361776 148.49628804046188 358.41419008389414 149.765625 356.97265625 C158.99914330386866 345.54387315882315 162.96667019054485 331.0838269025058 163.1640625 316.564697265625 C163.32510165508427 307.1670560717318 163.32510165508427 307.1670560717318 165.7109375 304.3359375 C167.8281249999999 303.09765625000006 167.8281249999999 303.09765625000006 169.91015625 302.33203125 C176.66795724809958 299.17253987426517 179.43900142885434 289.81195009172706 182.015625 283.34765625 C186.95560664064033 267.7587519217528 183.68233716234568 251.87205232300033 176.515625 237.61328125 C175.015625 235.34765625 175.015625 235.34765625 172.015625 234.34765625 C172.015625 233.02765625 172.015625 231.70765625 172.015625 230.34765625 C168.47203750665403 225.03227500998094 164.11405381489726 221.83767661331262 158.828125 218.41015625 C158.51899169921876 218.20926391601563 158.51899169921876 218.20926391601563 156.95458984375 217.192626953125 C152.40585487138344 214.34765625 152.40585487138344 214.34765625 149.015625 214.34765625 C147.55412876311368 219.09751901988062 146.91082296042032 223.11955936996674 147.015625 228.09765625 C147.1481081766866 235.1016001908315 145.97093630060556 241.73301691656616 144.5546875 248.57421875 C143.31316031301515 255.94061339277715 144.56608929994331 263.3625286408062 147.015625 270.34765625 C148.82469389338735 272.59504580037543 150.60526923687667 274.06282623873966 152.94140625 275.73828125 C156.51431199599972 278.5104793052766 159.11012004796066 282.26236911797616 161.015625 286.34765625 C161.171875 289.12109374999983 161.171875 289.12109374999983 161.015625 291.34765625 C160.29117187500003 291.0473046875 159.56671874999995 290.746953125 158.8203125 290.4375 C148.66819297583083 286.44433298716007 148.66819297583083 286.44433298716007 144.015625 288.34765625 C138.1690943111721 292.4268207513623 134.47226915457873 297.6206636210602 130.640625 303.53515625 C118.64974821544126 321.4754444616429 105.01518999112125 337.6836847231207 86.015625 348.34765625 C85.19062499999995 348.834921875 84.36562500000002 349.3221875 83.515625 349.82421875 C75.86332043425818 354.03815673721596 67.39316859678911 356.0818719205717 59.015625 358.34765625 C58.035454101562436 358.6181982421875 57.055283203124986 358.888740234375 56.04541015625 359.16748046875 C52.91339339472461 360.0303581593182 49.77784719350734 360.878915957244 46.640625 361.72265625 C46.138092041015625 361.8602233886719 46.138092041015625 361.8602233886719 43.594970703125 362.556396484375 C43.1242614746094 362.6805090332031 43.1242614746094 362.6805090332031 40.7421875 363.30859375 C40.32235595703128 363.4209838867188 40.32235595703128 363.4209838867188 38.19775390625 363.98974609375 C36.015625 364.34765625 36.015625 364.34765625 33.015625 363.34765625 C42.42667589680195 353.9830796786143 52.532153051695786 350.2823274906574 65.02685546875 346.57763671875 C80.73985118147766 341.86013185110653 93.4809410928973 333.8823401571027 105.015625 322.34765625 C105.77359375000003 321.5896875 106.53156249999995 320.83171875 107.3125 320.05078125 C119.49915190103354 307.15250004087693 138.23558828752448 285.2884544533645 138.328125 266.47265625 C138.14597673396622 260.38890416447293 137.30146551049143 255.79774877322137 133.05859375 251.25 C130.7749002257748 249.1686098203399 128.46597005902765 247.23051341959024 126.015625 245.34765625 C125.52376708984377 244.9144506835937 125.03190917968755 244.48124511718754 124.525146484375 244.034912109375 C119.48578269448058 239.89407990002564 114.9564465910687 239.53448651830763 108.578125 239.28515625 C101.32495209522403 238.96935072024172 96.34496657218585 238.0268173744168 90.015625 234.34765625 C92.01562500000011 232.34765625 92.01562500000011 232.34765625 94.37890625 231.64453125 C98.02906188540601 229.8491954411781 99.29626469732273 227.01927925508068 101.203125 223.59765625 C108.99552602988524 210.80116871399923 121.2906270846454 208.32142361358314 135.015625 204.34765625 C126.39922851653375 200.37901798934934 117.95699015819002 198.0115087429415 108.703125 196.03515625 C90.35297946417722 191.8334874123583 76.86615889383722 185.84955354324129 66.078125 169.72265625 C63.599620315605534 165.6434506236008 61.95017105123031 162.02038650615154 61.015625 157.34765625 C63.99751090922257 160.1541371057389 66.54232199434489 162.97109723694908 68.953125 166.28515625 C71.68139806105614 170.01970145305614 74.66880852783913 173.16021199079913 78.015625 176.34765625 C77.79906249999999 175.79078125 77.58249999999998 175.23390625 77.359375 174.66015625 C74.82415225249099 167.71176797904923 73.5326666008142 162.03776969961976 76.765625 155.03515625 C79.11282959480207 150.84958162290536 81.14050981275307 148.94428380957856 85.765625 147.47265625 C90.17080738182847 147.3032261583912 92.98036526027136 148.60832015528936 97.015625 150.34765625 C88.01541960126656 129.73428259483634 66.24891132834125 120.3022326875705 46.36572265625 112.33544921875 C23.76343866057016 103.56269272837025 1.2574455808881453 98.51158472159892 -22.984375 97.34765625 C-22.21256304310549 75.85269325048742 -16.39679527534213 54.178629088384696 -5.984375 35.34765625 C-1.3991648364614662 36.81409733833891 0.13965294281280194 40.4822329916003 2.265625 44.47265625 C2.6562109375000205 45.18768310546875 3.046796874999984 45.9027099609375 3.44921875 46.639404296875 C8.400779725295422 55.77835937364897 13.11712433324601 65.04403031809485 17.33984375 74.54296875 C17.536748046875005 74.97879272460938 17.536748046875005 74.97879272460938 18.533203125 77.184326171875 C19.299621531608977 78.88813570559904 20.05028307264081 80.59914148677743 20.783203125 82.317626953125 C20.957548828125027 82.70349975585938 20.957548828125027 82.70349975585938 21.83984375 84.65625 C22.13979248046877 85.34517333984377 22.439741210937484 86.03409667968748 22.748779296875 86.743896484375 C24.015625 88.34765625 24.015625 88.34765625 26.651611328125 89.078369140625 C27.041673583984334 89.12280151367187 27.041673583984334 89.12280151367187 29.015625 89.34765625 C24.780358302530658 74.72654446637995 20.32615539081229 60.32212137098955 14.390625 46.28515625 C13.960319824218743 45.25986816406251 13.530014648437486 44.23458007812499 13.086669921875 43.17822265625 C4.3550072961713795 23.053506350536267 4.3550072961713795 23.053506350536267 -1.984375 19.34765625 C-6.572309247006615 19.17773275937013 -8.451267506431805 19.88260503220647 -11.921875 22.91015625 C-26.217216498984158 41.79642987528976 -34.101870513305414 68.44137459987053 -43.320068359375 90.155029296875 C-43.64757080078124 90.92500244140626 -43.97507324218748 91.6949755859375 -44.3125 92.48828125 C-44.4512353515625 92.8158642578125 -44.4512353515625 92.8158642578125 -45.1533203125 94.4736328125 C-45.427568359375016 95.09206054687502 -45.701816406249975 95.71048828124998 -45.984375 96.34765625 C-46.23719238281251 97.05108154296875 -46.49000976562502 97.75450683593749 -46.75048828125 98.479248046875 C-48.540820557414406 101.19025178836415 -50.27893741601622 101.34039644344267 -53.3984375 102.1015625 C-54.53555175781253 102.3927294921875 -55.672666015625 102.683896484375 -56.84423828125 102.98388671875 C-58.0867333984375 103.2895556640625 -59.329228515625005 103.59522460937501 -60.609375 103.91015625 C-63.26964986517635 104.59713049812902 -65.92462128760991 105.30297717561979 -68.578125 106.015625 C-69.26721954345703 106.20046447753907 -69.95631408691406 106.38530395507814 -70.66629028320313 106.57574462890625 C-78.25463584336092 108.64342509827941 -85.68391493079167 111.13765257042792 -93.109375 113.72265625 C-93.77338317871096 113.95316680908203 -94.43739135742186 114.18367736816407 -95.12152099609375 114.42117309570313 C-102.30629766685018 116.92292345474343 -109.4592152752162 119.50545375680889 -116.5859375 122.16796875 C-117.79233886718748 122.6186572265625 -118.99874023437502 123.06934570312501 -120.24169921875 123.53369140625 C-122.48330592843462 124.37699682436286 -124.72218601597729 125.22760658624696 -126.95751953125 126.08740234375 C-136.07282690481452 129.54673027312978 -145.27537326544865 132.24436059834645 -154.984375 133.34765625 C-152.34000057468285 135.22472037625403 -149.69385138923172 137.09926318409026 -147.046875 138.97265625 C-146.27158447265623 139.52155517578126 -145.49629394531252 140.0704541015625 -144.697509765625 140.635986328125 C-139.97490244531366 143.97026089403155 -135.2236480172989 147.23969112171204 -130.35546875 150.359375 C-129.9030078125 150.6855078125 -129.450546875 151.011640625 -128.984375 151.34765625 C-128.984375 151.67765625 -128.984375 152.00765625 -128.984375 152.34765625 C-163.65050806813417 153.00497790969334 -188.14730658858252 143.49565920122 -217.277587890625 125.1435546875 C-237.65038483452742 112.33636980752061 -259.02790527744844 101.66890875611102 -281.984375 94.34765625 C-282.7951953125 94.08082031250001 -283.606015625 93.81398437500002 -284.44140625 93.5390625 C-293.3489426363012 91.06947784223007 -305.1925109021313 90.58298178652535 -313.796875 94.28515625 C-318.84482740609633 97.38237450594386 -320.43004185281967 100.7820053559399 -321.984375 106.34765625 C-324.76022592010827 118.04295675739775 -325.512054364574 129.24115812972116 -325.421875 141.22265625 C-325.41916595458986 142.07082916259765 -325.4164569091797 142.91900207519532 -325.4136657714844 143.79287719726563 C-325.34215715832397 158.6323933166382 -324.0467901548224 172.7973240774236 -320.984375 187.34765625 C-320.818408203125 188.212294921875 -320.65244140625 189.07693359375003 -320.4814453125 189.9677734375 C-315.75629130402274 214.38578487052928 -303.99275322948307 239.7482920512365 -288.3828125 259.18359375 C-286.984375 261.34765625 -286.984375 261.34765625 -286.984375 265.34765625 C-288.304375 265.34765625 -289.624375 265.34765625 -290.984375 265.34765625 C-289.0534799675435 276.9330264447388 -283.67964599119637 286.5648309003048 -275.984375 295.34765625 C-275.4133203125 296.0244140625 -274.842265625 296.701171875 -274.25390625 297.3984375 C-267.08207829883304 305.27368567665457 -257.409302417806 309.69248693269464 -247.984375 314.34765625 C-247.984375 315.00765625 -247.984375 315.66765625 -247.984375 316.34765625 C-249.5666239862458 317.4335723793436 -251.20357911570207 318.4400708496426 -252.859375 319.41015625 C-258.80139755877445 323.07864229147424 -264.19341036925624 327.2449151790777 -268.984375 332.34765625 C-268.984375 333.00765625 -268.984375 333.66765625 -268.984375 334.34765625 C-268.00082031249997 333.911953125 -267.017265625 333.47625 -266.00390625 333.02734375 C-225.51631444824204 315.50367643391934 -225.51631444824204 315.50367643391934 -213.984375 319.34765625 C-214.930546875 319.907109375 -215.87671875 320.4665625 -216.8515625 321.04296875 C-249.73743192396543 340.8410030435112 -279.31435988541136 368.0426266070107 -289.3671875 406.34375 C-290.88843750107094 412.6774522866167 -292.231565862846 418.78679876529486 -291.984375 425.34765625 C-291.55769531249996 424.7766015625 -291.13101562500003 424.205546875 -290.69140625 423.6171875 C-279.7717020993831 409.4553443850763 -266.37331576201086 396.0041690334738 -249.984375 388.34765625 C-250.396875 389.48203125 -250.809375 390.61640625 -251.234375 391.78515625 C-254.49749901852863 401.62048779880456 -256.52702402644854 411.855748602987 -258.485595703125 422.017822265625 C-261.30342683033473 436.59247792946485 -265.1736875481338 448.7026840888477 -272.984375 461.34765625 C-272.65437499999996 461.6776562499999 -272.32437500000003 462.0076562500001 -271.984375 462.34765625 C-241.82345901759467 458.0389539667992 -219.35131020318988 438.64026953040894 -200.984375 415.34765625 C-203.60432678377686 441.5766117482605 -218.87412603164614 465.86647768550586 -237.984375 483.34765625 C-238.974375 484.0076562500001 -239.964375 484.66765624999994 -240.984375 485.34765625 C-225.31995073601126 482.9644791828955 -211.8157486564602 476.9519011319154 -199.984375 466.34765625 C-198.953125 465.58453125000005 -197.921875 464.82140625 -196.859375 464.03515625 C-193.18189165790966 460.59750877804595 -190.48320586084463 456.7050180817322 -187.62109375 452.578125 C-187.08097656250004 451.8420703125 -186.54085937499997 451.10601562500005 -185.984375 450.34765625 C-185.65437499999996 450.34765625 -185.32437500000003 450.34765625 -184.984375 450.34765625 C-184.975029296875 451.0107177734375 -184.96568359375 451.67377929687495 -184.9560546875 452.35693359375 C-184.4090774472196 483.40057324064367 -177.31921652464416 512.629033549418 -155.984375 536.34765625 C-156.07525390625 536.07373046875 -156.07525390625 536.07373046875 -156.53515625 534.6875 C-163.3696485930314 513.1325626104395 -166.26916158335973 489.2020160000791 -158.984375 467.34765625 C-158.32437499999997 467.34765625 -157.664375 467.34765625 -156.984375 467.34765625 C-156.97019531249998 468.4033984375001 -156.95601562500002 469.4591406249999 -156.94140625 470.546875 C-156.18936050741473 499.09191557725853 -144.79744845586708 522.2321536669941 -130.852783203125 546.6591796875 C-123.08500217231841 560.312761546875 -118.28181558063989 572.6716533904073 -116.984375 588.34765625 C-114.55155736860485 580.7302215333495 -113.43730839218483 573.7742293655851 -113.484375 565.78515625 C-113.48574462890628 564.7217602539063 -113.4871142578125 563.6583642578125 -113.488525390625 562.562744140625 C-113.70208918572382 551.1048371573042 -115.98269769674476 540.1765453045218 -118.433349609375 529.02294921875 C-119.5037715932877 523.8259248059385 -120.12993121555576 518.6632540455699 -120.046875 513.34765625 C-120.04236328125 512.96609375 -120.04236328125 512.96609375 -120.01953125 511.03515625 C-120.01373046875 510.75671875 -120.01373046875 510.75671875 -119.984375 509.34765625 C-119.32437499999997 509.34765625 -118.664375 509.34765625 -117.984375 509.34765625 C-117.59507812499999 510.18425781249994 -117.20578124999997 511.020859375 -116.8046875 511.8828125 C-107.55230490877756 531.1337375688338 -94.69136379219765 547.9475545839432 -79.984375 563.34765625 C-79.2225390625 564.1507421875 -78.46070312500001 564.953828125 -77.67578125 565.78125 C-63.76690705128226 580.0868122329059 -63.76690705128226 580.0868122329059 -56.984375 582.34765625 C-57.226718749999975 581.8462109375 -57.46906250000001 581.344765625 -57.71875 580.828125 C-60.321447948519506 574.952033862381 -61.85941942213043 569.0498708868236 -63.171875 562.78515625 C-63.25518066406249 562.3898571777344 -63.25518066406249 562.3898571777344 -63.6767578125 560.389404296875 C-67.98328493991352 539.03583883297 -68.89723886325027 512.940388730555 -57.984375 493.34765625 C-57.324374999999975 493.0176562500001 -56.66437500000001 492.6876562499999 -55.984375 492.34765625 C-55.92121093750001 493.12625 -55.858046875000014 493.90484375000005 -55.79296875 494.70703125 C-54.30298894390302 508.32074147833873 -49.48262568140109 520.9056600024323 -43.921875 533.34765625 C-40.07744054421573 542.0850072858733 -37.44198218952573 551.1396699594521 -34.984375 560.34765625 C-34.80213378906251 561.0145849609376 -34.61989257812502 561.681513671875 -34.43212890625 562.36865234375 C-29.551868887105343 580.9233523767368 -30.58889467202124 601.7976827229944 -34.984375 620.34765625 C-37.984375 619.34765625 -37.984375 619.34765625 -40.359375 616.28515625 C-49.15231029368016 605.7638798666529 -63.86314694293242 600.7084832678436 -76.984375 598.34765625 C-76.75363281249997 598.798828125 -76.75363281249997 598.798828125 -75.5859375 601.08203125 C-63.41970980457069 625.5347876172902 -52.60999416471202 653.6622344098196 -52.921875 681.34765625 C-52.924130859375 681.7350195312499 -52.924130859375 681.7350195312499 -52.935546875 683.6953125 C-52.94717742429884 685.5794614864086 -52.965105935052634 687.463569899591 -52.984375 689.34765625 C-55.30938524392002 687.2152897120048 -56.69681587593192 685.2195793967576 -58.109375 682.41015625 C-63.565938559139795 672.3465539972152 -71.12875746434878 663.608962954159 -78.984375 655.34765625 C-79.45858886718747 654.8462109375 -79.932802734375 654.344765625 -80.42138671875 653.828125 C-87.79603725660724 646.0787319132392 -95.53349388994013 639.2194006550317 -104.076171875 632.78955078125 C-106.1144760579648 631.2493480554837 -108.13630994839798 629.6891992073928 -110.15625 628.125 C-117.32179499371739 622.5876188449503 -124.55185587316231 617.1743460434456 -131.9482421875 611.949462890625 C-138.09759925406507 607.5911548600372 -144.05186630709585 602.9951727876318 -149.984375 598.34765625 C-150.8235546875 597.6928125 -151.662734375 597.03796875 -152.52734375 596.36328125 C-159.27159417077695 591.0382939683425 -165.77794800885005 585.440867564278 -172.27490234375 579.8193359375 C-173.44227343484476 578.8143497996653 -174.61472346787826 577.8152408729161 -175.79150390625 576.8212890625 C-181.92206886281633 571.633760456376 -187.3892090343548 565.9028288530619 -192.859375 560.03515625 C-193.44589843749998 559.40931640625 -194.032421875 558.7834765625 -194.63671875 558.138671875 C-195.22324218749998 557.51025390625 -195.809765625 556.8818359375 -196.4140625 556.234375 C-197.01146240234374 555.5987060546875 -197.60886230468748 554.963037109375 -198.224365234375 554.30810546875 C-199.9843749999999 552.3476562500001 -199.9843749999999 552.3476562500001 -201.543212890625 550.31298828125 C-206.49606496868546 543.9737625634444 -212.45098687255972 541.1587781929429 -219.671875 537.84765625 C-231.38854913096498 532.3812381854078 -242.24727257070853 526.16359471602 -252.046875 517.66015625 C-252.6248583984375 517.1617724609375 -253.202841796875 516.663388671875 -253.79833984375 516.14990234375 C-261.66307590012804 509.18905951573765 -268.28124370611494 501.15202944562907 -273.984375 492.34765625 C-276.7652301605692 495.67625560886313 -279.01525625433 498.9915391253064 -281.109375 502.78515625 C-294.22740122163424 525.5397792289282 -311.98172600012634 547.3829735880603 -336.984375 557.34765625 C-340.48828124999955 558.08984375 -340.48828124999955 558.08984375 -342.984375 558.34765625 C-342.984375 559.00765625 -342.984375 559.66765625 -342.984375 560.34765625 C-342.25734375 560.48171875 -341.5303125 560.61578125 -340.78125 560.75390625 C-338.1870533728462 561.3046295563231 -335.75876462414993 562.0437105098249 -333.234375 562.84765625 C-315.8194918635987 567.6056929615605 -295.8793260315108 565.810630504976 -279.734375 557.71875 C-276.9843749999999 556.34765625 -276.9843749999999 556.34765625 -274.984375 556.34765625 C-282.0061370444422 575.2861586871734 -298.62863918368214 592.6979391089178 -311.984375 607.34765625 C-313.52635529387817 609.0765432461665 -315.0680240091775 610.805708189111 -316.609375 612.53515625 C-319.7078188229552 615.9832508515873 -322.8973353107494 619.2889711515237 -326.201416015625 622.538330078125 C-338.2917720859813 634.8074836913538 -349.18377261832654 648.9924164266157 -356.984375 664.34765625 C-357.28923828125 664.935791015625 -357.5941015625 665.52392578125 -357.908203125 666.1298828125 C-364.37634058793947 678.7083171480493 -369.30660475995103 692.1144812089709 -369.984375 706.34765625 C-369.4339453125 705.909375 -368.883515625 705.47109375 -368.31640625 705.01953125 C-335.9721798780489 680.34765625 -335.9721798780489 680.34765625 -322.984375 680.34765625 C-324.2469185895817 682.976666840553 -325.61523920695856 685.3888302038962 -327.26953125 687.7890625 C-349.5723437239938 720.7492828228594 -357.60268724475304 756.8443739463326 -356.984375 796.34765625 C-357.64437499999997 796.34765625 -358.304375 796.34765625 -358.984375 796.34765625 C-372.17983340729285 782.6280791676511 -382.8923053219755 765.5606758784927 -392.7490234375 749.37353515625 C-393.78580071100134 747.6733023863856 -394.8400836707233 745.9837614095206 -395.8984375 744.296875 C-420.4508609256893 704.093736167888 -440.3580139004971 650.7234033580205 -429.984375 603.34765625 C-425.6828949949344 587.3174043252016 -416.89953660053186 571.8961974935924 -404.984375 560.34765625 C-415.5071428075896 561.7837045625652 -425.3817875199435 565.9207901399529 -434.796875 570.72265625 C-437.984375 572.34765625 -437.984375 572.34765625 -439.984375 572.34765625 C-438.58420883465595 568.3003009283024 -436.6662513022557 565.3628520294533 -433.984375 562.03515625 C-433.283125 561.1521484375 -432.58187499999997 560.269140625 -431.859375 559.359375 C-431.240625 558.6955078125 -430.621875 558.031640625 -429.984375 557.34765625 C-429.32437500000003 557.34765625 -428.664375 557.34765625 -427.984375 557.34765625 C-427.984375 556.68765625 -427.984375 556.02765625 -427.984375 555.34765625 C-409.6510237406884 538.6122991575064 -387.1800330734291 529.184803099067 -363.984375 521.34765625 C-381.71851505736123 516.8596552035425 -400.3640113310156 517.7794138173003 -417.984375 522.34765625 C-411.47581906584793 510.0201926925994 -393.5034033608375 501.60888637625635 -380.6953125 497.58984375 C-370.34321103579384 494.6270509215558 -359.950571479313 492.8244364357456 -349.296875 491.34765625 C-336.555571391423 489.54960437543343 -327.1381782327247 487.1263593832821 -318.67578125 476.73828125 C-316.09339159369193 473.08834483046064 -314.0090324563939 469.33370061727555 -311.984375 465.34765625 C-317.264375 466.0076562500001 -322.544375 466.66765624999994 -327.984375 467.34765625 C-326.5846354166667 465.26432291666674 -325.1848958333333 463.18098958333326 -323.78515625 461.09765625 C-323.1908984375 460.19015625 -322.596640625 459.28265624999995 -321.984375 458.34765625 C-321.5855712890625 457.76201904296875 -321.186767578125 457.1763818359375 -320.77587890625 456.572998046875 C-317.5226687693238 451.6416808340409 -315.48842890719214 446.7853882695706 -313.734375 441.16015625 C-313.479140625 440.37962890625 -313.22390625 439.5991015625 -312.9609375 438.794921875 C-311.73983602869765 435.00629388903826 -310.6465917581029 431.28153913444464 -309.984375 427.34765625 C-312.294375 427.67765625 -314.604375 428.00765625 -316.984375 428.34765625 C-316.0047864784947 420.12426839841595 -314.4853721291496 412.8764995908412 -310.984375 405.34765625 C-316.89577691520117 405.92405144808083 -322.2286770989784 407.09636045425765 -327.859375 408.97265625 C-328.6458642578125 409.2340942382813 -329.432353515625 409.4955322265625 -330.24267578125 409.764892578125 C-336.61842702889703 411.9977866864148 -341.77545338717687 415.027807603221 -346.984375 419.34765625 C-348.313834206657 420.35280101351054 -349.6460172627003 421.35439075438074 -350.984375 422.34765625 C-349.03481831826497 410.08078274694805 -339.45446888124116 399.77614674514456 -331.62109375 390.5703125 C-322.3390685103327 379.65311182951046 -316.2149118585735 367.1591976654417 -309.984375 354.34765625 C-310.81839843750004 354.63640625 -311.65242187499996 354.92515625 -312.51171875 355.22265625 C-319.1920615942438 357.4264806934619 -324.95429383743635 359.1369986963229 -331.984375 358.34765625 C-332.822265625 358.26515625 -333.66015625 358.18265625 -334.5234375 358.09765625 C-342.35187349423757 357.0147602046876 -348.97609799982473 353.8907915219487 -355.984375 350.34765625 C-352.984375 349.34765625 -352.984375 349.34765625 -349.046875 349.41015625 C-334.7999947885522 349.5023690669026 -322.4484219629808 345.519053325463 -312.12109375 335.57421875 C-309.5814162233095 332.92775405125485 -307.22054194769396 330.25467328200216 -304.984375 327.34765625 C-305.49677734375 327.48623046875 -305.49677734375 327.48623046875 -308.08984375 328.1875 C-309.4504983125136 328.5534691581933 -310.8111766568694 328.9193499047305 -312.171875 329.28515625 C-312.84541015625 329.46755859375 -313.5189453125 329.6499609375 -314.212890625 329.837890625 C-319.4866899653966 331.2528123992527 -324.3232470406678 332.49185218969154 -329.796875 332.41015625 C-330.58707031250003 332.4011328125 -331.377265625 332.392109375 -332.19140625 332.3828125 C-332.48724609375 332.37701171875 -332.48724609375 332.37701171875 -333.984375 332.34765625 C-333.63374999999996 332.06921875 -333.63374999999996 332.06921875 -331.859375 330.66015625 C-330.35309419536804 329.4485825593178 -328.8501192562852 328.23178271080366 -327.38671875 326.96875 C-323.18790064102564 323.34765625 -323.18790064102564 323.34765625 -320.984375 323.34765625 C-320.984375 322.68765625 -320.984375 322.02765625 -320.984375 321.34765625 C-320.32437500000003 321.34765625 -319.664375 321.34765625 -318.984375 321.34765625 C-318.739453125 320.8358984375 -318.49453125 320.324140625 -318.2421875 319.796875 C-316.21800080046154 315.8553686005882 -313.9556116495231 312.0472764338677 -311.73046875 308.216796875 C-308.984375 303.45388335622715 -308.984375 303.45388335622715 -308.984375 302.34765625 C-315.584375 303.00765625 -322.184375 303.66765625 -328.984375 304.34765625 C-322.98437500000057 296.3476562500007 -322.98437500000057 296.3476562500007 -320.3125 292.91796875 C-317.5286372744807 288.9916087619275 -316.1432819263477 284.79024160799815 -314.734375 280.22265625 C-314.479140625 279.4376171875 -314.22390625 278.652578125 -313.9609375 277.84375 C-312.7423287452573 274.04040793914504 -311.63761729381264 270.2952064556204 -310.984375 266.34765625 C-310.85933593749996 265.68765625 -310.73429687500004 265.02765625 -310.60546875 264.34765625 C-309.9830098162249 257.56682701398233 -313.17281383102886 253.24082558066266 -316.76953125 247.76953125 C-341.62572101697714 209.94442902812875 -345.8528939790179 157.24474106151894 -341.984375 113.34765625 C-341.87222656250003 112.05601562499999 -341.760078125 110.764375 -341.64453125 109.43359375 C-340.34352643485283 98.0590945089993 -337.5837074172278 88.32940149573471 -328.38671875 80.96875 C-316.876282386107 73.20154497395839 -303.9748657151234 73.19371353144703 -290.609375 75.34765625 C-265.0970058781671 80.3266680412217 -240.96750828729574 92.62345581610708 -218.98486328125 106.12109375 C-204.5642477942871 114.96282821503561 -189.92514421119085 123.52314442283412 -173.984375 129.34765625 C-174.29890625000002 128.5600390625 -174.61343749999997 127.77242187499999 -174.9375 126.9609375 C-181.19131170092476 111.04385651421256 -181.19131170092476 111.04385651421256 -182.984375 103.34765625 C-182.65437500000002 102.68765625 -182.32437499999997 102.02765625 -181.984375 101.34765625 C-180.919609375 101.87875 -179.85484375 102.40984375 -178.7578125 102.95703125 C-152.31349433087843 115.91885132085042 -152.31349433087843 115.91885132085042 -140.68408203125 112.328857421875 C-139.54825683593748 111.85424072265624 -138.41243164062502 111.37962402343749 -137.2421875 110.890625 C-135.9310763389875 110.35464179842253 -134.61995954970286 109.81867236445629 -133.308837890625 109.28271484375 C-132.96683853149415 109.1402230834961 -132.96683853149415 109.1402230834961 -131.23611450195313 108.41912841796875 C-118.66638230889913 103.19456123083734 -105.97680701859025 98.47461679347023 -93.046875 94.22265625 C-92.35813293457034 93.99540863037109 -91.66939086914061 93.76816101074218 -90.95977783203125 93.53402709960938 C-88.98078034239433 92.88259992210811 -87.00026846749284 92.23595827009109 -85.01953125 91.58984375 C-83.80797363281249 91.19120117187498 -82.59641601562498 90.79255859375002 -81.34814453125 90.3818359375 C-77.98437500000006 89.34765625 -77.98437500000006 89.34765625 -75.03857421875 88.6962890625 C-70.09782130441823 87.5823872502508 -67.59282126025602 86.48047846783601 -64.6875 82.22265625 C-63.760171609085035 80.61251242397933 -62.85883826868013 78.9871119757818 -61.984375 77.34765625 C-61.106984020655204 75.86681668839597 -60.22681592603374 74.3876187057414 -59.34375 72.91015625 C-58.471085511827994 71.39096953920239 -57.60137811308567 69.87008101762575 -56.734375 68.34765625 C-55.77007640043331 66.66765572308225 -54.80522168383186 64.98797429187874 -53.83984375 63.30859375 C-53.360795898437516 62.474248046875005 -52.881748046874975 61.63990234375001 -52.38818359375 60.7802734375 C-49.90192544541162 56.471912360970634 -47.36372361235834 52.19429453955834 -44.827392578125 47.915283203125 C-42.505571399166286 43.982570161950676 -40.234573015164415 40.026467422492175 -38.0078125 36.0390625 C-15.072438608801235 -4.954915841869706 -15.072438608801235 -4.954915841869706 0 0 Z M115.3828125 215.56640625 C112.26001306161515 219.63496780400988 110.015625 224.18828517800756 110.015625 229.34765625 C113.41875238439411 228.28890550818846 116.02915731338692 227.33863470774207 119.015625 225.34765625 C122.203125 225.22265625 122.203125 225.22265625 125.015625 225.34765625 C125.10199218749995 226.2396875 125.188359375 227.13171875 125.27734375 228.05078125 C125.4178515625 229.22125 125.55835937500001 230.39171875 125.703125 231.59765625 C125.83074218750005 232.7578125 125.95835937499999 233.91796875 126.08984375 235.11328125 C127.21991187681908 239.06136736395035 128.5439689633272 240.2448840778623 132.015625 242.34765625 C133.005625 242.34765625 133.99562500000002 242.34765625 135.015625 242.34765625 C135.34562500000004 241.02765625 135.67562499999997 239.70765625 136.015625 238.34765625 C136.65499999999997 238.22390625000003 137.29437499999995 238.10015625 137.953125 237.97265625 C138.63374999999996 237.76640625 139.31437500000004 237.56015624999998 140.015625 237.34765625 C141.9653929019156 233.44812044616867 141.02144903436886 228.525250404495 140.953125 224.2421875 C141.015625 220.34765625 141.015625 220.34765625 141.62109375 216.57421875 C142.015625 213.34765625 142.015625 213.34765625 140.328125 209.91015625 C139.56500000000005 209.06453124999996 138.801875 208.21890625000003 138.015625 207.34765625 C130.01994777795016 207.34765625 121.2117769908507 209.88244087583712 115.3828125 215.56640625 Z M-154.984375 537.34765625 C-153.984375 539.34765625 -153.984375 539.34765625 -153.984375 539.34765625 Z " fill="#0B0B0B" transform="translate(488.984375,69.65234375)"/>
<path d="M0 0 C24.57352734581565 12.580024017914866 47.34932717334635 28.8489505165698 69.0390625 45.84033203125 C71.0720875411572 47.4314171169963 73.11352186167164 49.01124110738675 75.15625 50.58984375 C76.45871726690063 51.601068183396706 77.76081773143096 52.61276529019261 79.0625 53.625 C79.36385864257812 53.85819946289064 79.36385864257812 53.85819946289064 80.888916015625 55.038330078125 C82.27820957195962 56.12681263160505 83.6422153097123 57.24745772153605 85 58.375 C85 58.704999999999984 85 59.035 85 59.375 C84.60377441406251 59.394819335937484 84.60377441406251 59.394819335937484 82.5986328125 59.4951171875 C61.90618927338028 60.57229069356288 41.34112994253019 62.18739144509661 21 66.375 C21.541889648437518 66.52010009765627 22.08377929687498 66.66520019531248 22.64208984375 66.814697265625 C35.434646535749266 70.27210861836897 47.75026901461166 74.31955546634765 60 79.375 C57.384001957731186 81.99099804226881 54.511281690528506 82.57947817071317 51.0625 83.625 C35.71216102492008 88.55086869959655 23.599159305042633 97.70589289085774 11.9609375 108.72265625 C10 110.375 10 110.375 8 110.375 C7.752499999999998 110.93187499999999 7.5049999999999955 111.48874999999998 7.25 112.0625 C5.783939852723563 114.77471127246145 3.9701052948676647 117.01087364615876 2 119.375 C2.5336718750000102 119.181640625 3.067343749999992 118.98828125 3.6171875 118.7890625 C4.362265624999992 118.52867187499999 5.107343749999984 118.26828124999997 5.875 118 C6.594296874999998 117.74476562500001 7.3135937499999955 117.48953125000003 8.0546875 117.2265625 C16.33083726876697 114.83372344218674 24.209305809881187 114.01790636012345 32.8125 114.0625 C33.89184814453125 114.0652392578125 34.971196289062505 114.06797851562499 36.083251953125 114.07080078125 C48.3722537546177 114.22753216829534 61.38426494483463 115.0589756660936 73 119.375 C70.16521298182522 121.26485801211652 67.61779304118477 122.23207575753429 64.402587890625 123.276611328125 C45.78055421559179 129.35807123985467 30.251669442484683 139.02062819125126 21.125 156.9375 C20.939374999999984 157.33968749999997 20.939374999999984 157.33968749999997 20 159.375 C16.178438775795684 158.4485609153444 14.249482763206629 156.74011137230116 11.77734375 153.8359375 C11.470748291015639 153.47709472656248 11.470748291015639 153.47709472656248 9.919189453125 151.6611328125 C9.285856933593749 150.90670898437497 8.652524414062498 150.15228515625 8 149.375 C7.385358886718734 148.64377929687498 6.770717773437497 147.91255859374996 6.137451171875 147.1591796875 C4.290535202114029 144.9470763968128 2.4559899572216466 142.72529696293464 0.625 140.5 C-0.0027734374999965894 139.74203124999997 -0.6305468749999932 138.9840625 -1.27734375 138.203125 C-1.8741796875000034 137.47867187500003 -2.471015625000007 136.75421875 -3.0859375 136.0078125 C-3.622670898437491 135.3569970703125 -4.15940429687501 134.706181640625 -4.71240234375 134.03564453125 C-6 132.375 -6 132.375 -7 130.375 C-9.598877209045213 143.36938604522595 -4.054598719223122 154.4352054976909 2.79296875 165.19140625 C3.8189406121626917 166.70964964697708 4.862988762981416 168.21601833395852 5.93359375 169.703125 C7 171.375 7 171.375 7 173.375 C-5.688701972565468 169.03597991696006 -18.235398777136083 156.3515426452808 -24.125 144.6875 C-24.769444333134913 143.25861135791126 -25.40270340833655 141.8242301513518 -26 140.375 C-22.81258760716736 141.61423914397346 -19.735636822190997 142.9500999209198 -16.6875 144.5 C-15.990117187500005 144.853203125 -15.292734375000009 145.20640625 -14.57421875 145.5703125 C-14.054726562500008 145.83585937500004 -13.535234375000016 146.10140624999997 -13 146.375 C-16.066753746667246 141.50427346117556 -19.28957640711522 136.9756960250055 -23.0625 132.625 C-49.55298613494995 100.55051594452942 -61.4950763715629 58.57195308413907 -59 17.375 C-58.0782038842768 7.755372663828382 -56.328534017673775 -1.509459797294653 -49.9375 -9.0625 C-37.18274643416822 -19.348591585348203 -12.116113377427013 -5.978353301672371 0 0 Z " fill="#070707" transform="translate(234,188.625)"/>
<path d="M0 0 C6.456705430076909 3.3940036525261803 12.696138336269428 6.954631335514421 18.5625 11.3125 C30.06419547765006 19.609743006264978 43.74169395080628 26.03156647017795 57 31 C56.227851562500064 31.601992187500002 55.455703125000014 32.203984375000005 54.66015625 32.82421875 C52 35 52 35 49.4375 37.8125 C49.03531250000003 38.17343749999998 49.03531250000003 38.17343749999998 47 40 C45.1171875 39.69921875 45.1171875 39.69921875 43 39 C39.914797701767725 38.17880012764243 37.195633838447066 37.668480163018216 34 38 C31.04821150261489 39.81696224734003 29.119356545591472 42.287982228012766 27 45 C26.351601562500036 45.81984375000002 25.70320312499996 46.63968749999998 25.03515625 47.484375 C24.363554687500027 48.33515625000001 23.691953125000055 49.18593750000002 23 50.0625 C15.535491651670554 59.50038411857747 6.8373890975075255 65.23345404753184 -5 68 C-21.752261274497982 69.69966825950013 -36.008391595761054 66.17091739999904 -51.3125 59.75 C-58.45452393560356 56.75679994044083 -64.17427945481649 54.871168349236086 -72 56 C-73.89578640523155 56.16719961511541 -75.79161871683198 56.33387966503534 -77.6875 56.5 C-79.12564165122643 56.66103607914198 -80.56343074644525 56.82549267201938 -82 57 C-79.44044005848104 54.36515888373049 -76.98268528831312 51.98637568932952 -74.0859375 49.70703125 C-70.97517145355596 47.12684649323705 -68.91630704217687 44.306364208028185 -66.75 40.875 C-66.56179687500003 40.578354492187486 -66.56179687500003 40.578354492187486 -65.609375 39.0771484375 C-62.92024219127069 34.74490240764737 -60.565517625885434 30.28151935836462 -58.260498046875 25.735595703125 C-51.81702377847779 13.029608578090745 -44.73744109010278 3.4629086247891223 -31.7734375 -3.1328125 C-21.705271105450777 -6.280887062802719 -9.22409697434614 -4.7518075322388995 0 0 Z M-32.04296875 39.77734375 C-32.75066406249999 40.16019531249998 -33.458359374999986 40.543046875000016 -34.1875 40.9375 C-34.90292968749998 41.31777343750002 -35.61835937500001 41.69804687499999 -36.35546875 42.08984375 C-36.626816406249986 42.24001953125003 -36.626816406249986 42.24001953125003 -38 43 C-37.402684563758385 48.37583892617448 -37.402684563758385 48.37583892617448 -35.75 50.9375 C-34 52 -34 52 -31.5 52.0625 C-29 51 -29 51 -27.125 48.25 C-25.950416305583246 44.856758216129435 -25.913351983168525 43.358730233842664 -27 40 C-30 39 -30 39 -32.04296875 39.77734375 Z " fill="#D4F1FB" transform="translate(492,267)"/>
<path d="M0 0 C6.456705430076909 3.3940036525261803 12.696138336269428 6.954631335514421 18.5625 11.3125 C30.06419547765006 19.609743006264978 43.74169395080628 26.03156647017795 57 31 C56.227851562500064 31.601992187500002 55.455703125000014 32.203984375000005 54.66015625 32.82421875 C52 35 52 35 49.4375 37.8125 C49.03531250000003 38.17343749999998 49.03531250000003 38.17343749999998 47 40 C45.1171875 39.69921875 45.1171875 39.69921875 43 39 C39.914797701767725 38.17880012764243 37.195633838447066 37.668480163018216 34 38 C31.04821150261489 39.81696224734003 29.119356545591472 42.287982228012766 27 45 C26.351601562500036 45.81984375000002 25.70320312499996 46.63968749999998 25.03515625 47.484375 C24.363554687500027 48.33515625000001 23.691953125000055 49.18593750000002 23 50.0625 C15.535491651670554 59.50038411857747 6.8373890975075255 65.23345404753184 -5 68 C-21.752261274497982 69.69966825950013 -36.008391595761054 66.17091739999904 -51.3125 59.75 C-58.45452393560356 56.75679994044083 -64.17427945481649 54.871168349236086 -72 56 C-73.89578640523155 56.16719961511541 -75.79161871683198 56.33387966503534 -77.6875 56.5 C-79.12564165122643 56.66103607914198 -80.56343074644525 56.82549267201938 -82 57 C-79.44044005848104 54.36515888373049 -76.98268528831312 51.98637568932952 -74.0859375 49.70703125 C-70.97517145355596 47.12684649323705 -68.91630704217687 44.306364208028185 -66.75 40.875 C-66.56179687500003 40.578354492187486 -66.56179687500003 40.578354492187486 -65.609375 39.0771484375 C-62.92024219127069 34.74490240764737 -60.565517625885434 30.28151935836462 -58.260498046875 25.735595703125 C-51.81702377847779 13.029608578090745 -44.73744109010278 3.4629086247891223 -31.7734375 -3.1328125 C-21.705271105450777 -6.280887062802719 -9.22409697434614 -4.7518075322388995 0 0 Z M-42 20 C-47.79482649549351 27.162870167035408 -53.11053104688398 36.40623834454237 -52.55859375 45.90625 C-51.13438337362277 51.24454903313432 -46.75941261775057 53.9378545986591 -42.25 56.66015625 C-30.739591643753442 62.76007317837548 -18.491533824786814 66.50114742680194 -5.53125 63.0859375 C3.201220364903179 59.98150422807339 9.260519959287308 56.472264613422226 13.9375 48.375 C16.93169472130478 41.74997114820934 17.36050909216351 35.2013959189718 15.11328125 28.26171875 C10.652357759200413 18.495112170475238 3.838211963869526 12.988018920027514 -6 9 C-19.949072700688987 4.539705877783774 -32.505218937617826 9.739804725295244 -42 20 Z " fill="#0E0F11" transform="translate(492,267)"/>
<path d="M0 0 C5.703054971934137 3.622338398425825 9.25812834176304 7.391572525289234 11.41796875 13.87109375 C12.413690382052664 25.183144422336056 12.413690382052664 25.183144422336056 9.54296875 29.55859375 C7.41796875 31.87109375 7.41796875 31.87109375 5.41796875 32.87109375 C-0.652925444913933 32.931802691949144 -4.793051418784444 31.723099266412476 -9.58203125 27.87109375 C-10.15824218749998 27.44828124999998 -10.734453125000016 27.025468750000016 -11.328125 26.58984375 C-17.218410882543992 22.029622421578836 -20.952446379676815 16.585644484906936 -22.20703125 9.18359375 C-21.359712445538378 4.692804086353306 -19.83999934011672 3.053295140346563 -16.58203125 -0.12890625 C-11.140542921103872 -1.942735692965357 -5.333271745823822 -2.3317935469638087 0 0 Z " fill="#010309" transform="translate(480.58203125,285.12890625)"/>
<path d="M0 0 C14.61537112019721 1.9200585589278774 29.134964822620873 4.839946935598476 41 14 C41.41701171875002 14.30421874999999 41.41701171875002 14.30421874999999 43.52734375 15.84375 C46.34036380319151 18.296810141171733 48.19434991515368 20.826563898314646 50.25 23.9375 C50.93578124999999 24.957148437499995 51.62156249999998 25.97679687499999 52.328125 27.02734375 C53.89205323857925 29.808066622800993 54.60711309701833 31.862682524720128 55 35 C44.24165243048708 30.207356130178084 34.21056082816813 25.451551466999206 25 18 C22.859177148962374 16.30551599555821 20.715408392696247 14.616446036894843 18.5625 12.9375 C18.293690185546893 12.726818847656261 18.293690185546893 12.726818847656261 16.933349609375 11.66064453125 C12.251640747157126 8.054795313130455 7.349711805519405 5.126296917652979 2.16796875 2.27734375 C1.4525390625000227 1.8558203124999864 0.7371093749999886 1.4342968750000011 0 1 C0 0.6699999999999875 0 0.3400000000000034 0 0 Z " fill="#1A1A19" transform="translate(432,214)"/>
<path d="M0 0 C8.798959337854853 3.836834349172449 15.934841521630005 10.948313732839381 20.125 19.5625 C21.282750601719613 23.035751805158895 21.193666519332282 25.923174475391647 21.125 29.5625 C17.93344133338735 29.732989245011368 15.156903199509088 29.62947638728366 12.125 28.5625 C10.675786853113209 26.475268486559344 9.976284766100207 24.43340677623661 9.125 22.04296875 C6.260594756958994 14.937901057300536 0.5695468289853807 10.573694247369644 -6.23046875 7.4609375 C-10.393289749495693 6.04668516634564 -14.49875009440268 5.664922870130994 -18.875 5.5625 C-18.1328125 1.78125 -18.1328125 1.78125 -15.8125 -0.1875 C-10.253998344059028 -2.5528198535919273 -5.556636607039195 -1.9016432972285031 0 0 Z " fill="#CCEBFA" transform="translate(591.875,231.4375)"/>
<path d="M0 0 C-0.39662774387920763 4.4464057603300375 -3.4651128321916076 6.620482163918837 -6.625 9.375 C-6.897354736328111 9.618753662109384 -6.897354736328111 9.618753662109384 -8.275634765625 10.852294921875 C-11.121563794889198 13.389389672655 -14.012251275126914 15.867225567013008 -16.9375 18.3125 C-20.0466773930616 20.93233954669597 -22.444358898148494 23.839075479288965 -25 27 C-27.190768864735332 29.24997883405257 -29.41416210461159 31.45169862880124 -31.70703125 33.59765625 C-37.680158284746085 39.32747872121257 -42.660669907723104 45.695475635812045 -47.6669921875 52.26123046875 C-48.87999474955984 53.843465678821474 -50.11464544189795 55.4090451516351 -51.3515625 56.97265625 C-56.34491401340108 63.38637807021661 -60.554678186689216 70.06388033583062 -64.551025390625 77.126220703125 C-66.77120862893833 81.0319718040443 -69.06561971754422 84.56872236994303 -72 88 C-71.39373780636504 83.08253998496082 -69.25639123888573 79.23135272988463 -66.9375 74.9375 C-66.73507690429688 74.56028808593749 -66.73507690429688 74.56028808593749 -65.710693359375 72.6513671875 C-62.179027704989494 66.16342348485472 -58.32015554798437 59.99614809579003 -54 54 C-53.26394531250003 52.97777343749999 -52.527890625 51.95554687499998 -51.76953125 50.90234375 C-46.08133167377707 43.192484336812754 -39.71698876646008 36.233065854396386 -33.1015625 29.3125 C-30.571331586558586 26.65596552579194 -28.2903231035923 23.866630001676242 -26 21 C-24.88682680482998 19.943647710383914 -23.74034596296201 18.921224356594053 -22.5625 17.9375 C-18.08047362223624 14.11509259858633 -13.777620050293876 10.115343897808032 -9.480712890625 6.087646484375 C-2.943293525165359 0 -2.943293525165359 0 0 0 Z " fill="#525251" transform="translate(558,356)"/>
<path d="M0 0 C-0.5465624999999363 0.28552734375000455 -0.5465624999999363 0.28552734375000455 -3.3125 1.73046875 C-8.549563731415446 4.472076789496782 -13.775222081635775 7.235069142967745 -19 10 C-19.98387695312499 10.518847656249989 -20.967753906249982 11.037695312499977 -21.9814453125 11.572265625 C-38.40019275115611 20.250519353466814 -54.20627393593185 29.369359838213768 -68.99609375 40.63671875 C-71 42 -71 42 -73 42 C-73 42.65999999999997 -73 43.31999999999999 -73 44 C-74.58066373933065 45.22606617043141 -76.21763517268727 46.37978665411549 -77.875 47.5 C-83.94076247105716 51.77986353340475 -88.90725084962992 56.60897703821996 -94 62 C-94 58.38307400869127 -93.45544070447698 58.0713442960473 -90.9921875 55.59375 C-90.66750488281252 55.26588500976561 -90.66750488281252 55.26588500976561 -89.0244140625 53.606689453125 C-88.31510742187498 52.911481933593734 -87.60580078125003 52.21627441406247 -86.875 51.5 C-86.51003417968752 51.140472412109375 -86.51003417968752 51.140472412109375 -84.6630859375 49.321044921875 C-63.84996746799135 29.10665380738368 -37.88863511703789 13.583121538389037 -11.3125 2.1875 C-10.516423339843755 1.8435620117187455 -9.720346679687509 1.499624023437491 -8.900146484375 1.145263671875 C-3.3777051241892195 -1.125901708063111 -3.3777051241892195 -1.125901708063111 0 0 Z " fill="#40413E" transform="translate(542,350)"/>
<path d="M0 0 C17.053440478951643 6.548699948011574 33.0864578531008 14.728657224855112 48.5625 24.4375 C49.353823242187445 24.933386230468727 50.145146484375005 25.42927246093751 50.96044921875 25.940185546875 C54.69908235073967 28.338098524177667 58.0199392306215 30.656324388734504 61 34 C55.742477373327915 32.49311949912703 51.38520933355005 30.08917544683527 46.6875 27.375 C31.027709613541788 18.52846329880373 14.686818975420692 11.668208392019665 -2 5 C-1.3400000000000318 3.3500000000000227 -0.67999999999995 1.6999999999999886 0 0 Z " fill="#2C2D2A" transform="translate(701,351)"/>
<path d="M0 0 C-0.8598046874999454 0.43828124999998863 -1.7196093750000045 0.8765625000000057 -2.60546875 1.328125 C-14.600652096713702 7.675398069565432 -24.229156551605 16.082898793391564 -32.73046875 26.671875 C-32.93994140625 26.891015624999994 -32.93994140625 26.891015624999994 -34 28 C-34.65999999999997 28 -35.32000000000005 28 -36 28 C-37.52299522613953 30.93720507898334 -38.801003016370714 33.916864899238874 -40 37 C-41.32000000000005 36.670000000000016 -42.639999999999986 36.34 -44 36 C-41.30063084229266 28.44708531242469 -35.81968114505753 22.403989634696302 -30 17 C-29.38898437499995 16.40703124999999 -28.777968750000014 15.814062500000006 -28.1484375 15.203125 C-22.113214377045324 9.540988397373411 -8.762736136347598 -2.9209120454491995 0 0 Z " fill="#464645" transform="translate(606,140)"/>
<path d="M0 0 C-0.39662774387920763 4.4464057603300375 -3.4651128321916076 6.6204821639188935 -6.625 9.375 C-7.169709472656223 9.862507324218768 -7.714418945312445 10.35001464843748 -8.275634765625 10.852294921875 C-11.121563794889198 13.389389672655 -14.012251275126914 15.867225567013008 -16.9375 18.3125 C-19.121044694700004 20.139975056235755 -20.563244975818407 21.711467337875945 -22.375 24 C-25.71821537601761 27.820817572591523 -29.50812707624766 30.627887332400462 -34 33 C-34.99000000000001 33 -35.98000000000002 33 -37 33 C-36.54109374999996 32.55269531250002 -36.08218750000003 32.105390624999984 -35.609375 31.64453125 C-32.94084456712051 29.015243911721655 -30.360217665011874 26.464796987112152 -28.0625 23.5 C-25.759860441527167 20.70892174730568 -23.239645897794617 18.51499046377961 -20.4921875 16.171875 C-16.738523806971102 12.900657110777274 -13.113126729356168 9.492482399867072 -9.480712890625 6.087646484375 C-2.943293525165359 0 -2.943293525165359 0 0 0 Z " fill="#444444" transform="translate(558,356)"/>
<path d="M0 0 C-0.54656250000005 0.28552734375000455 -0.54656250000005 0.28552734375000455 -3.3125 1.73046875 C-16.610100481204086 8.694837389613383 -29.814600158264398 15.825815312713416 -43 23 C-43 20 -43 20 -41.47265625 18.078125 C-38.34268561252054 15.447565159337955 -35.0577222907786 13.62527680689493 -31.4375 11.75 C-31.070681152343752 11.558332519531234 -31.070681152343752 11.558332519531234 -29.21435546875 10.58837890625 C-23.446911595175834 7.6299994661530945 -17.57995487490132 4.933094258346216 -11.625 2.375 C-10.810876464843773 2.020185546874984 -9.996752929687545 1.665371093750025 -9.157958984375 1.2998046875 C-8.396848144531305 0.9817285156249795 -7.6357373046874955 0.6636523437500159 -6.8515625 0.3359375 C-6.179477539062532 0.052827148437472715 -5.50739257812495 -0.23028320312499773 -4.81494140625 -0.52197265625 C-3 -1 -3 -1 0 0 Z " fill="#2C2D2B" transform="translate(542,350)"/>
<path d="M0 0 C1.4221441733935762 4.266432520180601 -0.28409756268104047 7.318472490910182 -1.75 11.375 C-4.359177498120289 18.85242886245564 -6.434502983995799 26.22744463983898 -8 34 C-8.659999999999968 33.00999999999999 -9.32000000000005 32.02000000000001 -10 31 C-10.659999999999968 31.33 -11.32000000000005 31.659999999999997 -12 32 C-10.024271237918242 20.73834605613419 -5.339920214928611 10.06369578967309 0 0 Z " fill="#5C5D5B" transform="translate(545,94)"/>
<path d="M0 0 C0.2990624999999909 0.24750000000000227 0.2990624999999909 0.24750000000000227 1.8125 1.5 C-1.3209973244580624 2.5444991081527064 -2.177182563857855 2.434236445699298 -5.1875 1.5 C-5.1875 0.839999999999975 -5.1875 0.18000000000000682 -5.1875 -0.5 C-6.962660290777649 -0.10217120817884506 -8.732591625771818 0.3190366091376404 -10.5 0.75 C-10.993066406250023 0.8660156249999886 -10.993066406250023 0.8660156249999886 -13.48828125 1.453125 C-16.57713807566728 2.6511186747884494 -17.57873262018569 3.642958265279617 -19.1875 6.5 C-19.800950076996912 11.305358936475727 -18.62432282345219 13.473944900383401 -16.1875 17.5 C-16.59765625 19.6484375 -16.59765625 19.6484375 -17.1875 21.5 C-23.369318181818187 11.763636363636351 -23.369318181818187 11.763636363636351 -22.1875 5.5 C-17.46227499939232 -2.459219297601578 -8.131170466236256 -3.8264331605817574 0 0 Z " fill="#030925" transform="translate(481.1875,285.5)"/>
<path d="M0 0 C1 2 1 2 0.80078125 3.921875 C-0.2285841124555077 6.593203647933308 -1.5183868434755823 7.564529109492241 -3.8125 9.25 C-4.499570312499998 9.770781250000027 -5.1866406249999955 10.291562499999998 -5.89453125 10.828125 C-8 12 -8 12 -12 12 C-12 12.660000000000025 -12 13.319999999999993 -12 14 C-17.173174209584886 15.06309567090176 -22.123693363071766 15.116939382998453 -27.375 15.0625 C-27.79072265625001 15.060244140625002 -27.79072265625001 15.060244140625002 -29.89453125 15.048828125 C-31.929718971998852 15.037131643839075 -33.96486922864278 15.019199346899597 -36 15 C-36 14.339999999999975 -36 13.680000000000007 -36 13 C-35.068007812500014 13.058007812500023 -34.13601562500003 13.116015624999989 -33.17578125 13.17578125 C-22.582577458047524 13.550667127369422 -12.93584150294555 12.22784868229246 -4.3125 5.375 C-2 3 -2 3 0 0 Z " fill="#060F28" transform="translate(504,317)"/>
<path d="M0 0 C19.88177765838668 10.498501548819263 19.88177765838668 10.498501548819263 26 17 C20.498944050994282 15.434586972710576 15.820937251278224 12.858205151008008 10.875 10.0625 C10.077070312500041 9.619707031250016 9.279140624999968 9.176914062499975 8.45703125 8.720703125 C4.782335528319095 6.6625054378147865 1.3359940610845342 4.583081980332622 -2 2 C-1.3400000000000318 2 -0.67999999999995 2 0 2 C0 1.339999999999975 0 0.6800000000000068 0 0 Z " fill="#494A45" transform="translate(736,368)"/>
<path d="M0 0 C0.660000000000025 0.9900000000000091 1.3199999999999932 1.9800000000000182 2 3 C-3 11.333333333333371 -8 19.66666666666663 -13 28 C-14 25 -14 25 -13.259033203125 23.010498046875 C-12.860310058593768 22.268400878906277 -12.46158691406248 21.526303710937498 -12.05078125 20.76171875 C-11.614433593749993 19.941230468750007 -11.178085937499986 19.120742187500014 -10.728515625 18.275390625 C-10.26123046875 17.42138671875 -9.7939453125 16.5673828125 -9.3125 15.6875 C-8.864550781249989 14.845097656250005 -8.416601562499977 14.002695312500009 -7.955078125 13.134765625 C-5.513221810481184 8.588718716310723 -2.949518096609836 4.234319890449228 0 0 Z " fill="#595A56" transform="translate(500,416)"/>
<path d="M0 0 C0.3300000000000409 0.6599999999999966 0.6599999999999682 1.3199999999999932 1 2 C-0.20106381967468678 4.645305992962477 -1.4550019452057086 7.186602657951823 -2.8125 9.75 C-5.268439186041292 14.430428605858708 -7.486599512893122 18.907287249735617 -9 24 C-9.659999999999968 23.340000000000003 -10.32000000000005 22.680000000000007 -11 22 C-11.659999999999968 22.329999999999984 -12.32000000000005 22.659999999999997 -13 23 C-11.538542612231822 17.884899142811378 -9.2610889019345 13.740077479503782 -6.5 9.25 C-6.298261718750041 8.914199218750014 -6.298261718750041 8.914199218750014 -5.27734375 7.21484375 C-3.6745004203077087 4.575177672387895 -2.191739699293862 2.1917396992938336 0 0 Z " fill="#6A6B68" transform="translate(563,124)"/>
<path d="M0 0 C2.6399999999999864 0 5.279999999999973 0 8 0 C8 0.660000000000025 8 1.3199999999999932 8 2 C13.939999999999998 2 19.879999999999995 2 26 2 C25.670000000000016 2.990000000000009 25.339999999999975 3.980000000000018 25 5 C22.79229195105046 5.0816549552351375 20.583695748374055 5.13948487503535 18.375 5.1875 C17.760117187499986 5.204902343750007 17.760117187499986 5.204902343750007 14.6484375 5.29296875 C10.705916770676367 4.976385179658166 8.413458228861089 3.9225224507378584 5 2 C2.125 1.3125 2.125 1.3125 0 1 C0 0.6700000000000159 0 0.339999999999975 0 0 Z " fill="#010409" transform="translate(460,330)"/>
<path d="M0 0 C-8.25 3.3000000000000114 -16.5 6.600000000000023 -25 10 C-25.33000000000004 8.680000000000007 -25.659999999999968 7.360000000000014 -26 6 C-22.422119114177576 4.795613486137881 -18.836981353297233 3.614478256550683 -15.25 2.4375 C-14.234218749999968 2.0952539062499795 -13.21843750000005 1.753007812500016 -12.171875 1.400390625 C-11.192187500000045 1.0813476562499886 -10.212499999999977 0.7623046874999773 -9.203125 0.43359375 C-8.302392578125023 0.13509521484377274 -7.4016601562500455 -0.16340332031251137 -6.4736328125 -0.470947265625 C-4 -1 -4 -1 0 0 Z " fill="#565753" transform="translate(753,267)"/>
<path d="M0 0 C-0.8356280029023537 4.624096927977746 -3.648350099504455 6.776763172368419 -7.0625 9.75 C-7.630332031249964 10.256601562500009 -8.198164062500041 10.763203125000018 -8.783203125 11.28515625 C-10.181986497602907 12.531131355007687 -11.59010733236164 13.766609732684401 -13 15 C-13.659999999999968 14.339999999999975 -14.32000000000005 13.680000000000007 -15 13 C-15 11 -15 11 -13.42578125 9.4140625 C-12.728398437500005 8.823671875000002 -12.031015625000009 8.233281250000005 -11.3125 7.625 C-10.584179687499955 7.007539062499973 -9.855859375000023 6.390078125000002 -9.10546875 5.75390625 C-8.410664062500018 5.175117187500007 -7.715859375000036 4.596328125000014 -7 4 C-6.051249999999982 3.195625000000007 -5.102499999999964 2.3912500000000136 -4.125 1.5625 C-2 0 -2 0 0 0 Z " fill="#636361" transform="translate(558,356)"/>
<path d="M0 0 C2.895896516418702 -0.0270644534244866 5.791537950624445 -0.046870289633261564 8.6875 -0.0625 C9.095810546874986 -0.06668945312497954 9.095810546874986 -0.06668945312497954 11.162109375 -0.087890625 C15.244990835537976 -0.10442050945562187 19.01651707012917 -0.030350981860692627 23 1 C23 1.660000000000025 23 2.319999999999993 23 3 C24.319999999999993 3.329999999999984 25.639999999999986 3.660000000000025 27 4 C27 4.660000000000025 27 5.319999999999993 27 6 C27.660000000000025 6 28.319999999999993 6 29 6 C28.670000000000016 6.660000000000025 28.339999999999975 7.319999999999993 28 8 C27.324531250000007 7.650664062500027 26.649062500000014 7.301328124999998 25.953125 6.94140625 C25.061093749999998 6.4863671874999795 24.169062499999995 6.031328125000016 23.25 5.5625 C22.368281249999995 5.110039062499993 21.48656249999999 4.657578124999986 20.578125 4.19140625 C15.833385953497157 1.9987616906312837 11.991080258429065 1.8889714790886387 6.75 1.9375 C6.118359375000011 1.9420117187499955 6.118359375000011 1.9420117187499955 2.921875 1.96484375 C1.9576562500000136 1.9764453125000045 0.9934375000000273 1.988046875000009 0 2 C0 1.339999999999975 0 0.6800000000000068 0 0 Z " fill="#0B1330" transform="translate(468,274)"/>
<path d="M0 0 C2.708738733871428 0.7903001651161503 5.416994161498906 1.5821956591230446 8.125 2.375 C8.885546875000045 2.5967187499999795 9.646093749999977 2.818437500000016 10.4296875 3.046875 C14.649879529063128 4.283827836104706 18.837646816274173 5.577086930802977 23 7 C19.98873998913234 7.941492023515195 18.016134883652512 8.007282672717395 14.9609375 7.2578125 C14.215859375000036 7.078632812500018 13.470781249999959 6.8994531249999795 12.703125 6.71484375 C11.934843750000027 6.520195312499993 11.166562500000055 6.325546874999986 10.375 6.125 C9.598984374999986 5.938085937499977 8.822968749999973 5.751171875000011 8.0234375 5.55859375 C2.329559948979636 4.164779974489818 2.329559948979636 4.164779974489818 0 3 C0 2.009999999999991 0 1.0199999999999818 0 0 Z " fill="#565654" transform="translate(762,329)"/>
<path d="M0 0 C-1 2 -1 2 -3.8359375 3.03515625 C-5.003828125000041 3.374179687499975 -6.171718749999968 3.713203125000007 -7.375 4.0625 C-8.537734375000014 4.404101562499989 -9.700468750000027 4.745703124999977 -10.8984375 5.09765625 C-11.921953124999959 5.395429687499984 -12.945468750000032 5.693203125000025 -14 6 C-14.990000000000009 6.329999999999984 -15.980000000000018 6.660000000000025 -17 7 C-17 6.339999999999975 -17 5.680000000000007 -17 5 C-17.659999999999968 4.670000000000016 -18.32000000000005 4.339999999999975 -19 4 C-16.210796109716398 3.136959395833003 -13.419139276000351 2.2842769349293803 -10.625 1.4375 C-9.830937500000005 1.1906445312499727 -9.036875000000009 0.9437890625000023 -8.21875 0.689453125 C-7.4582031249999545 0.46064453125001137 -6.697656250000023 0.23183593750002274 -5.9140625 -0.00390625 C-5.2123291015625455 -0.21861572265623863 -4.510595703124977 -0.43332519531247726 -3.78759765625 -0.654541015625 C-2 -1 -2 -1 0 0 Z " fill="#4C4D4A" transform="translate(624,276)"/>
<path d="M0 0 C0.660000000000025 0.9900000000000091 1.3199999999999932 1.9800000000000182 2 3 C1.370937500000025 3.484687500000007 0.7418749999999932 3.9693750000000136 0.09375 4.46875 C-5.666560604242079 8.979836617779938 -10.955219334873107 13.701571145006369 -16 19 C-16 16 -16 16 -14.53125 14.190673828125 C-13.860937499999977 13.53607177734375 -13.190625000000011 12.8814697265625 -12.5 12.20703125 C-11.778124999999989 11.494824218750011 -11.056249999999977 10.782617187500023 -10.3125 10.048828125 C-9.549374999999998 9.310839843749989 -8.786249999999995 8.572851562499977 -8 7.8125 C-7.618437500000027 7.4377050781250205 -7.618437500000027 7.4377050781250205 -5.6875 5.541015625 C-3.7981916108363407 3.687131768133156 -1.9022479449647562 1.8405893097805688 0 0 Z " fill="#A1A19D" transform="translate(464,393)"/>
<path d="M0 0 C0.660000000000025 0.3299999999999841 1.3199999999999932 0.660000000000025 2 1 C0.6112264641354841 4.356202711672552 -0.916779652688831 6.072987282930512 -4 8 C-4.660000000000025 8 -5.319999999999993 8 -6 8 C-6 8.660000000000025 -6 9.319999999999993 -6 10 C-7.319999999999993 10.329999999999984 -8.639999999999986 10.660000000000025 -10 11 C-8.552182071885113 7.555717349958229 -6.723053914451441 5.63869037986251 -3.875 3.25 C-3.150546874999975 2.636406249999993 -2.426093750000007 2.0228124999999864 -1.6796875 1.390625 C-1.4025390625000114 1.1611718749999795 -1.4025390625000114 1.1611718749999795 0 0 Z " fill="#535450" transform="translate(475,384)"/>
<path d="M0 0 C0.6599999999999682 0.3299999999999841 1.32000000000005 0.660000000000025 2 1 C0.25420934978910736 2.9414396023896643 -1.4963749282046592 4.878157840653273 -3.25 6.8125 C-3.741132812500041 7.359707031250025 -4.232265624999968 7.906914062499993 -4.73828125 8.470703125 C-7.317299545893093 11.307623250482322 -9.806291942466942 13.832840960959686 -13 16 C-13.659999999999968 15.670000000000016 -14.32000000000005 15.339999999999975 -15 15 C-10.049999999999955 10.050000000000011 -5.100000000000023 5.100000000000023 0 0 Z " fill="#262625" transform="translate(542,370)"/>
<path d="M0 0 C-1.369835027391673 3.1611577555191275 -1.9890637959729247 3.992709197315321 -5 6 C-7.6875 6.125 -7.6875 6.125 -10 6 C-7.823046828702786 0.9762619123910099 -5.413728479493216 -0.2926339718645181 0 0 Z " fill="#3A3B39" transform="translate(558,336)"/>
<path d="M0 0 C0.7641330709626004 2.483432480628437 0.9867948435398262 4.310321176814398 0.875 6.9375 C1.020239385910827 10.495864954815318 2.189708413791834 12.009083466264826 4 15 C3.58984375 17.1484375 3.58984375 17.1484375 3 19 C-0.4008811151787768 13.643612243593395 -2.919550070347441 9.568214788195974 -2 3 C-1.339999999999975 2.009999999999991 -0.6800000000000068 1.0199999999999818 0 0 Z " fill="#1E2D4B" transform="translate(461,288)"/>
<path d="M0 0 C0.6599999999999966 0.3300000000000409 1.3199999999999932 0.6599999999999682 2 1 C-3.280000000000001 6.279999999999973 -8.560000000000002 11.559999999999945 -14 17 C-14 12.683818341046617 -11.867296518035594 11.072103412181036 -9 8 C-8.340000000000003 8 -7.68 8 -7 8 C-7 7.340000000000032 -7 6.67999999999995 -7 6 C-5.46875 4.4921875 -5.46875 4.4921875 -3.5 2.875 C-3.1751562500000006 2.6055859374999955 -3.1751562500000006 2.6055859374999955 -1.53125 1.2421875 C-1.2785937499999989 1.0372265624999955 -1.2785937499999989 1.0372265624999955 0 0 Z " fill="#51514F" transform="translate(68,619)"/>
<path d="M0 0 C0.660000000000025 0.3299999999999841 1.3199999999999932 0.660000000000025 2 1 C0.9107236189347532 4.2678291431957405 0.3165207148068703 4.819373326931782 -2.375 6.75 C-2.9808593750000227 7.198593749999986 -3.5867187499999886 7.647187499999973 -4.2109375 8.109375 C-6 9 -6 9 -9 8 C-6.147238631008577 5.0679952596477165 -3.3492021558759006 2.3568459615423194 0 0 Z " fill="#383838" transform="translate(484,378)"/>
<path d="M0 0 C1.327485503705475 3.9824565111164816 -0.0009217141601993717 6.4478954282446495 -1.4375 10.1875 C-1.68048828124995 10.841699218749994 -1.9234765625000136 11.495898437500003 -2.173828125 12.169921875 C-2.7743292953765604 13.783032862089925 -3.3860920345413206 15.391943495321073 -4 17 C-4.659999999999968 16.340000000000003 -5.32000000000005 15.680000000000007 -6 15 C-5.638056832038274 11.13707928011749 -4.212497646796692 8.100957013070584 -2.4375 4.6875 C-1.9824609375000364 3.804492187500003 -1.527421874999959 2.9214843750000057 -1.05859375 2.01171875 C-0.8839257812500136 1.6797851562500057 -0.8839257812500136 1.6797851562500057 0 0 Z " fill="#A5A5A0" transform="translate(545,94)"/>
<path d="M0 0 C1 2 1 2 0.875 3.875 C-0.43761638637403166 7.0627826526227295 -2.0767185349869237 8.196273138608944 -5 10 C-7.702445738363906 10.60554802655929 -10.221162869571913 10.811604262343849 -13 11 C-12.009999999999991 10.339999999999975 -11.019999999999982 9.680000000000007 -10 9 C-8.637996513859548 8.03176385836747 -7.284272869745564 7.05181165945794 -5.9375 6.0625 C-5.245273437499975 5.5584765625000045 -4.553046875000007 5.054453125000009 -3.83984375 4.53515625 C-2 3 -2 3 0 0 Z " fill="#0A1534" transform="translate(504,317)"/>
<path d="M0 0 C0 3 0 3 -2.1875 5.48046875 C-3.1156250000000227 6.373789062500009 -4.0437500000000455 7.26710937499999 -5 8.1875 C-5.928125000000023 9.088554687499993 -6.8562500000000455 9.989609374999986 -7.8125 10.91796875 C-8.534374999999955 11.605039062499998 -9.256250000000023 12.292109374999995 -10 13 C-10.990000000000009 12.669999999999987 -11.980000000000018 12.340000000000003 -13 12 C-8.847922084891593 7.737363797211174 -4.636787786511832 3.732048706216858 0 0 Z " fill="#777773" transform="translate(717,226)"/>
<path d="M0 0 C0.3300000000000409 0.9900000000000091 0.6599999999999682 1.9800000000000182 1 3 C-1.25 6.1875 -1.25 6.1875 -4 9 C-4.990000000000009 9 -5.980000000000018 9 -7 9 C-5.649781737413605 4.581103867899117 -3.738843315838608 2.6565465665168517 0 0 Z " fill="#525352" transform="translate(573,367)"/>
<path d="M0 0 C0.6599999999999682 0.6599999999999966 1.32000000000005 1.3199999999999932 2 2 C1.7628124999999955 2.299062499999991 1.7628124999999955 2.299062499999991 0.5625 3.8125 C-1 6 -1 6 -2 9 C-3.32000000000005 8.669999999999987 -4.639999999999986 8.340000000000003 -6 8 C-4.125 3.25 -4.125 3.25 -3 1 C-2.009999999999991 0.6699999999999875 -1.0199999999999818 0.3400000000000034 0 0 Z " fill="#656662" transform="translate(568,168)"/>
<path d="M0 0 C0.6599999999999966 0.3299999999999841 1.3199999999999932 0.660000000000025 2 1 C1.009999999999991 1.990000000000009 1.009999999999991 1.990000000000009 -4 7 C-3.3400000000000034 7.660000000000025 -2.680000000000007 8.319999999999993 -2 9 C-4.969999999999999 9 -7.939999999999998 9 -11 9 C-10.649374999999992 8.721562500000005 -10.649374999999992 8.721562500000005 -8.875 7.3125 C-5.886557385463817 4.908752679612178 -2.9405976165215577 2.461895678948281 0 0 Z " fill="#636561" transform="translate(166,393)"/>
<path d="M0 0 C0.6599999999999682 0.3299999999999841 1.32000000000005 0.660000000000025 2 1 C1 4 1 4 -1.875 5.75 C-5 7 -5 7 -8 6 C-8 5.339999999999975 -8 4.680000000000007 -8 4 C-6.71349293842411 3.302892685239101 -5.420593351338198 2.6175712431401053 -4.125 1.9375 C-3.4057031249999454 1.5546484375000205 -2.6864062500000045 1.171796874999984 -1.9453125 0.77734375 C-1.3033593750000136 0.5208203125000068 -0.6614062500000273 0.26429687500001364 0 0 Z " fill="#3E3F3E" transform="translate(520,357)"/>
<path d="M0 0 C-4.289999999999964 2.3100000000000023 -8.580000000000041 4.6200000000000045 -13 7 C-13.659999999999968 6.340000000000003 -14.32000000000005 5.680000000000007 -15 5 C-13.068910368263005 3.9670915923267103 -11.129881997529651 2.949013282224797 -9.1875 1.9375 C-8.108554687500032 1.3690234375000045 -7.02960937499995 0.8005468750000091 -5.91796875 0.21484375 C-3 -1 -3 -1 0 0 Z " fill="#5D5E5C" transform="translate(606,140)"/>
<path d="M0 0 C3.076920568614014 2.769228511752601 4.778000074724218 5.028500242853653 6 9 C6 9.990000000000009 6 10.980000000000018 6 12 C5.009999999999991 11.670000000000016 4.019999999999982 11.339999999999975 3 11 C2.05078125 9.00390625 2.05078125 9.00390625 1.3125 6.5625 C1.0611328124999773 5.759414062500014 0.8097656249999545 4.956328124999999 0.55078125 4.12890625 C0 2 0 2 0 0 Z " fill="#0D1842" transform="translate(598,248)"/>
<path d="M0 0 C4.6710579248900785 1.5570193082967307 8.087056853088939 4.084473733674145 12 7 C11.669999999999959 7.1650000000000205 11.669999999999959 7.1650000000000205 10 8 C7.3984375 6.78515625 7.3984375 6.78515625 4.375 5.0625 C3.3721093750000364 4.496601562500018 2.369218749999959 3.9307031249999795 1.3359375 3.34765625 C0.5650781250000136 2.9029296874999773 -0.20578124999997272 2.4582031250000114 -1 2 C-0.6699999999999591 1.339999999999975 -0.34000000000003183 0.6800000000000068 0 0 Z " fill="#6B6B68" transform="translate(750,377)"/>
<path d="M0 0 C-0.75 2.4375 -0.75 2.4375 -2 5 C-4.125 5.8125 -4.125 5.8125 -6 6 C-6 4.680000000000007 -6 3.3600000000000136 -6 2 C-3 0 -3 0 0 0 Z " fill="#494A46" transform="translate(575,345)"/>
<path d="M0 0 C0.6599999999999682 0.3300000000000125 1.32000000000005 0.6599999999999966 2 1 C-1.6299999999999955 4.6299999999999955 -5.259999999999991 8.259999999999991 -9 12 C-9.659999999999968 11.669999999999987 -10.32000000000005 11.340000000000003 -11 11 C-7.638177402490328 6.748283185502515 -4.251716814497513 3.3618225975096436 0 0 Z " fill="#595A56" transform="translate(580,153)"/>
<path d="M0 0 C1.9800000000000182 0.3300000000000125 1.9800000000000182 0.3300000000000125 12 2 C11.009999999999991 3.319999999999993 10.019999999999982 4.639999999999986 9 6 C6.029999999999973 4.349999999999994 3.0600000000000023 2.6999999999999886 0 1 C0 0.6699999999999875 0 0.3400000000000034 0 0 Z " fill="#575957" transform="translate(432,214)"/>
<path d="M0 0 C0.6599999999999966 0.3300000000000409 1.3199999999999932 0.6599999999999682 2 1 C1.0672589099286114 2.1289487627401513 0.12859877553893284 3.25300875908988 -0.8125 4.375 C-1.3345703125000057 5.001484375000018 -1.8566406249999972 5.627968750000036 -2.39453125 6.2734375 C-4 8 -4 8 -7 10 C-7.659999999999997 9.669999999999959 -8.319999999999993 9.340000000000032 -9 9 C-6 6 -3 3 0 0 Z " fill="#61615E" transform="translate(80,582)"/>
<path d="M0 0 C-0.75 2.4375 -0.75 2.4375 -2 5 C-4.125 5.8125 -4.125 5.8125 -6 6 C-5.625 3.5625 -5.625 3.5625 -5 1 C-3 0 -3 0 0 0 Z " fill="#5D5E5A" transform="translate(584,358)"/>
<path d="M0 0 C0.3299999999999841 0 0.660000000000025 0 1 0 C0.6700000000000159 2.6399999999999864 0.339999999999975 5.279999999999973 0 8 C-0.9900000000000091 8 -1.9800000000000182 8 -3 8 C-5.1875 9 -5.1875 9 -7 10 C-6.578476562499986 9.445703125000023 -6.156953124999973 8.891406249999989 -5.72265625 8.3203125 C-5.1748046875 7.595859374999975 -4.626953125 6.871406250000007 -4.0625 6.125 C-3.5172265625000136 5.405703125000002 -2.9719531250000273 4.6864062500000045 -2.41015625 3.9453125 C-1 2 -1 2 0 0 Z " fill="#767676" transform="translate(287,485)"/>
<path d="M0 0 C0.660000000000025 0.9900000000000091 1.3199999999999932 1.9800000000000182 2 3 C0.01999999999998181 6.300000000000011 -1.9599999999999795 9.600000000000023 -4 13 C-5 10 -5 10 -4.00390625 7.51953125 C-3.528242187499984 6.626210937499991 -3.052578125000025 5.732890624999982 -2.5625 4.8125 C-2.0894140624999977 3.911445312500007 -1.6163281249999955 3.0103906250000136 -1.12890625 2.08203125 C-0.7563671875000182 1.3949609375000023 -0.38382812499997954 0.7078906250000045 0 0 Z " fill="#B7B7B0" transform="translate(491,431)"/>
<path d="M0 0 C-1.6499999999999773 0.8249999999999886 -1.6499999999999773 0.8249999999999886 -10 5 C-10.330000000000041 4.009999999999991 -10.659999999999968 3.019999999999982 -11 2 C-9.73392393413667 1.467706737154856 -8.46189587663298 0.9495545594398891 -7.1875 0.4375 C-6.47980468749995 0.1474609375 -5.772109375000014 -0.142578125 -5.04296875 -0.44140625 C-3 -1 -3 -1 0 0 Z " fill="#585858" transform="translate(542,350)"/>
<path d="M0 0 C0.3299999999999841 0.16500000000002046 0.3299999999999841 0.16500000000002046 2 1 C1.670000000000016 1.1650000000000205 1.670000000000016 1.1650000000000205 0 2 C0 1.339999999999975 0 0.6800000000000068 0 0 Z M-6 2 C-4.019999999999982 2 -2.0400000000000205 2 0 2 C-0.3299999999999841 2.990000000000009 -0.660000000000025 3.980000000000018 -1 5 C-2.980000000000018 5.329999999999984 -4.9599999999999795 5.660000000000025 -7 6 C-6.670000000000016 4.680000000000007 -6.339999999999975 3.3600000000000136 -6 2 Z " fill="#1B1B1C" transform="translate(492,329)"/>
<path d="M0 0 C2.1038856944981035 -0.05402274251207473 4.20816713733177 -0.09280255729251508 6.3125 -0.125 C6.898378906249945 -0.13660156250000455 6.898378906249945 -0.13660156250000455 9.86328125 -0.1953125 C13 0 13 0 16 2 C15.180156249999982 1.9883984374999955 14.360312499999964 1.976796874999991 13.515625 1.96484375 C12.437968749999982 1.955820312500009 11.360312499999964 1.9467968749999898 10.25 1.9375 C9.182656250000036 1.9258984374999955 8.115312499999959 1.914296874999991 7.015625 1.90234375 C4.466314986922384 1.9848991260711557 2.4206640895791907 2.2538244189889554 0 3 C0 2.009999999999991 0 1.0200000000000102 0 0 Z " fill="#081239" transform="translate(575,229)"/>
<path d="M0 0 C0.3300000000000409 0.6599999999999966 0.6599999999999682 1.3199999999999932 1 2 C0.00390625 4.3828125 0.00390625 4.3828125 -1.4375 7.125 C-1.9105859374999454 8.035078125000013 -2.3836718750000045 8.945156249999997 -2.87109375 9.8828125 C-3.243632812499982 10.581484375000002 -3.6161718749999636 11.280156250000005 -4 12 C-4.659999999999968 10.680000000000007 -5.32000000000005 9.360000000000014 -6 8 C-4.019999999999982 5.360000000000014 -2.0399999999999636 2.719999999999999 0 0 Z " fill="#959591" transform="translate(563,124)"/>
<path d="M0 0 C4.448702149936537 -0.39253254264144744 7.142434934601056 0.8469404286145163 11 3 C6.997996220973221 4.600801511610712 3.9544376413957707 3.292796921225545 0 2 C0 1.339999999999975 0 0.6800000000000068 0 0 Z " fill="#292B28" transform="translate(460,331)"/>
<path d="M0 0 C3.602444523024701 0.3087809591164046 4.993459984095352 0.9944773199027566 7.8125 3.375 C10 6 10 6 10 9 C8.707565323314498 7.875882397487459 7.416079253400653 6.750674082146446 6.125 5.625 C5.405703124999945 4.99851562500001 4.6864062500000045 4.372031249999992 3.9453125 3.7265625 C2.5923401975663865 2.525731661293861 1.2791655003048845 1.279165500304856 0 0 Z " fill="#071131" transform="translate(595,233)"/>
<path d="M0 0 C0.660000000000025 0 1.3199999999999932 0 2 0 C1.561791092916451 4.557372633668592 1.1495883073437767 7.576534448539405 -2 11 C-1.125 3.375 -1.125 3.375 0 0 Z " fill="#A6A6A5" transform="translate(330,537)"/>
<path d="M0 0 C0.660000000000025 0.3299999999999841 1.3199999999999932 0.660000000000025 2 1 C0.9512500246942182 3.6218749382644546 0.3506868679148738 4.793713607108884 -2.125 6.25 C-2.7437499999999773 6.497500000000002 -3.3625000000000114 6.7450000000000045 -4 7 C-4.329999999999984 5.680000000000007 -4.660000000000025 4.360000000000014 -5 3 C-2.625 1.4375 -2.625 1.4375 0 0 Z " fill="#474846" transform="translate(490,374)"/>
<path d="M0 0 C2.9700000000000273 0.9900000000000091 5.940000000000055 1.9800000000000182 9 3 C9 3.329999999999984 9 3.660000000000025 9 4 C2.25 4.125 2.25 4.125 0 3 C0 2.009999999999991 0 1.0199999999999818 0 0 Z " fill="#3B3C39" transform="translate(762,329)"/>
<path d="M0 0 C0.6599999999999682 0 1.32000000000005 0 2 0 C1.669999999999959 3.299999999999997 1.3400000000000318 6.599999999999994 1 10 C0.009999999999990905 9.010000000000005 -0.9800000000000182 8.019999999999996 -2 7 C-1.3400000000000318 4.689999999999998 -0.67999999999995 2.3799999999999955 0 0 Z " fill="#6D6E6C" transform="translate(538,109)"/>
<path d="M0 0 C0.660000000000025 0.9900000000000091 1.3199999999999932 1.9800000000000182 2 3 C1.339999999999975 3.990000000000009 1.339999999999975 3.990000000000009 -2 9 C-2.6875 7.3125 -2.6875 7.3125 -3 5 C-1.5625 2.25 -1.5625 2.25 0 0 Z " fill="#82837C" transform="translate(495,424)"/>
<path d="M0 0 C0.3299999999999841 0.660000000000025 0.660000000000025 1.3199999999999932 1 2 C-0.2739589027486886 4.038334244397902 -1.6106192264727497 6.038521260902712 -3 8 C-3.660000000000025 8 -4.319999999999993 8 -5 8 C-4.649504251449741 4.757914325909837 -4.437788193853919 3.3847229582352725 -1.9375 1.1875 C-1.6178125000000136 0.9915624999999864 -1.6178125000000136 0.9915624999999864 0 0 Z " fill="#434340" transform="translate(506,410)"/>
<path d="M0 0 C0.3300000000000409 0.9900000000000091 0.6599999999999682 1.9800000000000182 1 3 C-1.6219877412539745 5.153775644601524 -3.6440417167356145 6.400721735131356 -7 7 C-5.547443007763945 3.1705315659231132 -3.571044391959731 1.8794970483998554 0 0 Z " fill="#474845" transform="translate(517,396)"/>
<path d="M0 0 C0.6599999999999682 0.3299999999999841 1.32000000000005 0.660000000000025 2 1 C-0.6399999999999864 3.6399999999999864 -3.2799999999999727 6.279999999999973 -6 9 C-6 6 -6 6 -3.5625 3.375 C-2.716874999999959 2.5912500000000023 -1.8712500000000318 1.8075000000000045 -1 1 C-0.6699999999999591 0.6700000000000159 -0.34000000000003183 0.339999999999975 0 0 Z " fill="#6E6E6B" transform="translate(599,283)"/>
<path d="M0 0 C-0.3300000000000409 0.9900000000000091 -0.6599999999999682 1.9800000000000182 -1 3 C-3.5625 4.1875 -3.5625 4.1875 -6 5 C-6.330000000000041 3.680000000000007 -6.659999999999968 2.3600000000000136 -7 1 C-4 0 -4 0 0 0 Z " fill="#3F413C" transform="translate(734,272)"/>
<path d="M0 0 C0.6599999999999682 0 1.32000000000005 0 2 0 C1.4362858578248279 3.2695420246157596 0.5003773418247874 4.8257588331958345 -2 7 C-2.990000000000009 6.670000000000016 -3.980000000000018 6.339999999999975 -5 6 C-3.3840516766448445 3.958802117867208 -1.7143618000627612 1.9592706286430825 0 0 Z " fill="#282827" transform="translate(556,356)"/>
<path d="M0 0 C0.6599999999999682 0.3299999999999841 1.32000000000005 0.660000000000025 2 1 C1.669999999999959 1.990000000000009 1.3400000000000318 2.980000000000018 1 4 C-1.0625 4.6875 -1.0625 4.6875 -3 5 C-3 3.680000000000007 -3 2.3600000000000136 -3 1 C-2.009999999999991 0.6700000000000159 -1.0199999999999818 0.339999999999975 0 0 Z " fill="#626660" transform="translate(569,327)"/>
<path d="M0 0 C0.6599999999999682 0.3299999999999841 1.32000000000005 0.660000000000025 2 1 C1.5049999999999955 1.4950000000000045 1.5049999999999955 1.4950000000000045 -1 4 C-0.6699999999999591 4.660000000000025 -0.34000000000003183 5.319999999999993 0 6 C-1.9800000000000182 6.329999999999984 -3.9600000000000364 6.660000000000025 -6 7 C-4.019999999999982 4.689999999999998 -2.0399999999999636 2.3799999999999955 0 0 Z " fill="#757672" transform="translate(528,427)"/>
<path d="M0 0 C0.3299999999999841 0 0.660000000000025 0 1 0 C1.2887499999999932 0.9281250000000227 1.5774999999999864 1.8562499999999886 1.875 2.8125 C3 6 3 6 5 9 C3.3500000000000227 8.670000000000016 1.6999999999999886 8.339999999999975 0 8 C0 5.360000000000014 0 2.7200000000000273 0 0 Z " fill="#1E2E4F" transform="translate(439,310)"/>
<path d="M0 0 C0.3299999999999841 0.9900000000000091 0.660000000000025 1.9800000000000182 1 3 C1.660000000000025 3 2.319999999999993 3 3 3 C2.625 5.4375 2.625 5.4375 2 8 C1.670000000000016 8.16500000000002 1.670000000000016 8.16500000000002 0 9 C0 6.029999999999973 0 3.0600000000000023 0 0 Z " fill="#A8CDE7" transform="translate(492,299)"/>
<path d="M0 0 C2.6399999999999864 0.3300000000000409 5.279999999999973 0.6599999999999682 8 1 C7.669999999999959 1.1649999999999636 7.669999999999959 1.1649999999999636 6 2 C5.669999999999959 2.990000000000009 5.340000000000032 3.980000000000018 5 5 C4.009999999999991 4.340000000000032 3.019999999999982 3.67999999999995 2 3 C2 2.340000000000032 2 1.67999999999995 2 1 C1.3400000000000318 0.6699999999999591 0.67999999999995 0.34000000000003183 0 0 Z " fill="#656865" transform="translate(526,576)"/>
<path d="M0 0 C0.9900000000000091 0.3299999999999841 1.9800000000000182 0.660000000000025 3 1 C2.670000000000016 1.990000000000009 2.339999999999975 2.980000000000018 2 4 C-0.5625 5.1875 -0.5625 5.1875 -3 6 C-1.125 1.125 -1.125 1.125 0 0 Z " fill="#2F302D" transform="translate(501,367)"/>
<path d="M0 0 C-1.3715450392669482 2.95409700765191 -2.988637239889499 5.4400837598593625 -5 8 C-5.366259711431724 3.4827968923418666 -5.366259711431724 3.4827968923418666 -3.625 1.1875 C-2 0 -2 0 0 0 Z " fill="#0A1132" transform="translate(450,287)"/>
<path d="M0 0 C0.8250000000000455 0.16499999999999204 0.8250000000000455 0.16499999999999204 5 1 C4.669999999999959 2.319999999999993 4.340000000000032 3.6399999999999864 4 5 C2 3.625 2 3.625 0 2 C0 1.3400000000000034 0 0.6800000000000068 0 0 Z " fill="#40463F" transform="translate(563,247)"/>
<path d="M0 0 C0 0.6599999999999966 0 1.3199999999999932 0 2 C-2.6389217621062926 3.7830552446664285 -4.97178863425836 4.990596211419472 -8 6 C-6.985658805748926 3.46414701437223 -6.3498112801087245 2.218632050067953 -4 0.75 C-2 0 -2 0 0 0 Z " fill="#A9C9ED" transform="translate(581,230)"/>
<path d="M0 0 C0.9900000000000091 0.3299999999999841 1.9800000000000182 0.660000000000025 3 1 C2.009999999999991 1 1.0199999999999818 1 0 1 C0 0.6700000000000159 0 0.339999999999975 0 0 Z " fill="#ECECEA" transform="translate(765,387)"/>
<path d="M0 0 C0.9900000000000091 0.3299999999999841 1.9800000000000182 0.660000000000025 3 1 C2.009999999999991 1 1.0199999999999818 1 0 1 C0 0.6700000000000159 0 0.339999999999975 0 0 Z " fill="#ACAEAB" transform="translate(762,385)"/>
<path d="M0 0 C3 1 3 1 3 1 Z " fill="#AFB2AD" transform="translate(785,337)"/>
<path d="M0 0 C3 1 3 1 3 1 Z " fill="#8A8B87" transform="translate(753,265)"/>
<path d="M0 0 C3 1 3 1 3 1 Z " fill="#E6E6E5" transform="translate(756,264)"/>
<path d="" fill="#F2F2F0" transform="translate(0,0)"/>
<path d="M0 0 C2 1 2 1 2 1 Z " fill="#F4F6F3" transform="translate(788,338)"/>
<path d="M0 0 C2 1 2 1 2 1 Z " fill="#CCCCCA" transform="translate(606,138)"/>
<path d="" fill="#F4F4F2" transform="translate(0,0)"/>
<path d="" fill="#FBFBF9" transform="translate(0,0)"/>
<path d="" fill="#F8F8F8" transform="translate(0,0)"/>
<path d="" fill="#F7F7F5" transform="translate(0,0)"/>
<path d="" fill="#FAFAFA" transform="translate(0,0)"/>
<path d="" fill="#F5F5F5" transform="translate(0,0)"/>
<path d="" fill="#FBFBFB" transform="translate(0,0)"/>
<path d="" fill="#BEC0BD" transform="translate(0,0)"/>
<path d="" fill="#E5E7E4" transform="translate(0,0)"/>
<path d="" fill="#EEEEEE" transform="translate(0,0)"/>
<path d="" fill="#FBFBFB" transform="translate(0,0)"/>
</svg>


